<svg width="20" height="20" viewBox="0 0 20 20" fill="none" xmlns="http://www.w3.org/2000/svg">
<path d="M16.8619 13.7233L12.8576 16.2656L12.0714 13.8208C12.11 13.8012 12.1476 13.7798 12.1842 13.7568L16.3412 11.1368C16.6854 10.92 17.1291 11.0938 17.2369 11.4289L17.554 12.4148L17.5613 12.4378L17.5714 12.4596C17.6281 12.5828 17.6074 12.7842 17.4314 13.0729C17.271 13.3359 17.0349 13.5787 16.8619 13.7233ZM11.3104 14.0675L12.1028 16.5315L11.8129 16.6158L11.0205 14.1518L11.3104 14.0675ZM12.0579 17.3777L12.3478 17.2934L12.7172 18.4424C12.7326 18.4902 12.7108 18.5661 12.619 18.5928C12.5199 18.6216 12.4389 18.5626 12.4204 18.5051L12.0579 17.3777ZM10.2356 14.3241L11.0061 16.7203L7.62522 16.7159V16.7157L7.61115 16.7162C6.66567 16.7482 6.04309 16.6328 5.65701 16.4931C5.30392 16.3653 5.1868 16.2331 5.16397 16.2047L4.78643 15.0307C4.6843 14.7131 4.9276 14.3413 5.34776 14.34L10.2276 14.3242C10.2303 14.3242 10.2329 14.3241 10.2356 14.3241ZM15.681 10.051L11.6767 12.5933L10.8905 10.1485C10.9291 10.1289 10.9667 10.1076 11.0033 10.0845L15.1603 7.46458C15.5045 7.24768 15.9482 7.42149 16.056 7.75659L16.3731 8.74257L16.3804 8.76548L16.3905 8.78734C16.4472 8.91057 16.4265 9.11196 16.2505 9.4006C16.0901 9.66359 15.854 9.90638 15.681 10.051ZM14.5 6.37863L10.4958 8.92095L9.70957 6.4761C9.74813 6.45653 9.78578 6.43519 9.82241 6.4121L13.9794 3.7922C14.3236 3.5753 14.7673 3.74911 14.8751 4.08421L15.1921 5.07019L15.1995 5.0931L15.2096 5.11496C15.2663 5.23819 15.2456 5.43958 15.0695 5.72822C14.9091 5.99122 14.673 6.234 14.5 6.37863ZM7.8658 6.97951C7.86845 6.9795 7.87111 6.97949 7.87376 6.97946L8.6443 9.37564L5.26339 9.37127L5.26339 9.37103L5.24932 9.3715C4.30384 9.40357 3.68126 9.28815 3.29517 9.14843C2.94209 9.02064 2.82497 8.88845 2.80214 8.86008L2.4246 7.68601C2.32246 7.36841 2.56577 6.99667 2.98593 6.99531L7.8658 6.97951ZM9.04674 10.6519C9.04939 10.6519 9.05204 10.6519 9.05469 10.6518L9.82523 13.048L6.44432 13.0437L6.44432 13.0434L6.43025 13.0439C5.48477 13.0759 4.86219 12.9605 4.47611 12.8208C4.12302 12.693 4.0059 12.5608 3.98308 12.5325L3.60553 11.3584C3.5034 11.0408 3.7467 10.6691 4.16687 10.6677L9.04674 10.6519ZM10.9219 12.8593L10.632 12.9435L9.83962 10.4795L10.1295 10.3953L10.9219 12.8593ZM9.74094 9.1869L9.45105 9.27116L8.65869 6.80714L8.94859 6.72288L9.74094 9.1869ZM8.70358 5.96098L8.41368 6.04525L6.9706 1.55764C6.95521 1.5098 6.97699 1.43393 7.06886 1.40723C7.1679 1.37844 7.24892 1.43739 7.26742 1.49489L8.70358 5.96098ZM4.93989 3.67925C4.89639 3.54397 4.96992 3.37556 5.15376 3.32212C5.34477 3.2666 5.52314 3.37476 5.56975 3.5197L5.93162 4.64503C5.97512 4.7803 5.90158 4.94872 5.71775 5.00215C5.52673 5.05767 5.34837 4.94951 5.30176 4.80457L4.93989 3.67925ZM9.80994 2.26366C9.76644 2.12839 9.83998 1.95998 10.0238 1.90654C10.2148 1.85102 10.3932 1.95918 10.4398 2.10412L10.8017 3.22945C10.8452 3.36472 10.7716 3.53314 10.5878 3.58657C10.3968 3.64209 10.2184 3.53393 10.1718 3.38899L9.80994 2.26366ZM2.96808 4.6446C2.93335 4.53661 2.99074 4.39707 3.14589 4.35197L3.24979 4.32177C3.41211 4.27459 3.56011 4.3674 3.59794 4.48505C3.63267 4.59305 3.57528 4.73259 3.42014 4.77768L3.31623 4.80789C3.15391 4.85507 3.00592 4.76226 2.96808 4.6446ZM12.0125 2.01566C11.9778 1.90766 12.0352 1.76812 12.1903 1.72303L12.2942 1.69283C12.4565 1.64564 12.6045 1.73845 12.6424 1.85611C12.6771 1.9641 12.6197 2.10364 12.4646 2.14874L12.3607 2.17894C12.1983 2.22612 12.0503 2.13332 12.0125 2.01566Z" stroke="#232323" stroke-width="0.8"/>
</svg>
