<svg width="20" height="20" viewBox="0 0 20 20" fill="none" xmlns="http://www.w3.org/2000/svg">
<path d="M11.2842 10.1599L10.969 9.31451L13.1899 8.70066C13.1183 8.51009 13.1453 8.58089 13.0791 8.4244C12.8767 7.94491 12.5857 7.23631 12.3842 6.75674C11.825 5.42314 10.8297 2.825 10.2742 1.49038C10.1685 1.23514 10.204 1.63387 9.73463 1.71799C9.74627 1.8255 9.64727 1.64683 9.67277 1.74408C9.85845 2.4526 10.3832 4.11992 10.5717 4.82818C10.8397 5.83487 11.2005 7.09853 11.4516 8.10883C11.4783 8.21497 11.3315 8.16343 11.2402 8.19799C10.8901 8.33144 10.5547 8.54451 10.16 8.65366C9.44476 7.08391 8.26298 4.15117 7.56942 2.63132C7.54715 2.58251 7.48424 2.66725 7.48424 2.66725C7.41861 2.58124 7.30924 2.6041 7.16543 2.80173C6.7577 2.83675 7.01964 2.76439 6.97146 2.88355C6.94646 2.9446 6.83618 2.86649 6.85539 2.93251C7.21934 4.17527 7.84515 6.16908 8.20909 7.41185C8.35365 7.90489 8.60995 8.73236 8.75773 9.24516L7.48808 9.78073C6.60076 7.97214 5.54367 5.6714 4.65443 3.86092C4.18529 4.04667 4.01972 3.82664 4.10693 4.09186C4.52484 5.35669 5.07663 7.07608 5.5039 8.34005C5.75703 9.08739 6.25281 10.4004 6.54418 11.181C7.2235 10.9927 7.84372 10.5214 8.61078 10.3092L8.92585 11.1547C9.76942 10.9211 10.4509 10.3905 11.2842 10.1599Z" stroke="#232323" stroke-width="0.7" stroke-miterlimit="10"/>
<path d="M11.0413 10.4218C12.088 12.18 12.6437 13.4567 13.3011 15.3544C13.3468 15.6545 13.5433 16.6436 13.4812 16.9521C13.4149 17.2825 13.2235 17.4602 12.7052 17.6789C12.2405 17.8054 11.8012 18.0183 11.5463 17.7683C11.2205 17.448 10.9376 16.8105 10.7373 16.4359C10.6561 16.284 9.51148 12.9284 9.2616 11.1725C9.25061 11.0961 9.42298 11.0945 9.51994 11.0635C10.0225 10.9038 10.4692 10.5803 11.0413 10.4218Z" stroke="#232323" stroke-width="0.7" stroke-miterlimit="10"/>
</svg>
