<svg width="20" height="20" viewBox="0 0 20 20" fill="none" xmlns="http://www.w3.org/2000/svg">
<path d="M16.4808 13.5009H16.4805C14.9421 13.5 13.404 13.5002 11.8656 13.5003C11.2504 13.5004 10.6352 13.5005 10.02 13.5005L16.4808 13.5009ZM16.4808 13.5009C16.6747 13.5009 16.7981 13.5514 16.8688 13.605C16.9341 13.6545 16.9814 13.7259 16.9975 13.8365C17.0036 13.8797 16.998 13.9121 16.9858 13.9402L17.444 14.1401L16.986 13.9396C16.3967 15.286 15.6027 16.4508 14.3594 17.3055L14.3594 17.3056M16.4808 13.5009L14.3594 17.3056M14.3594 17.3056C13.2839 18.0452 12.0409 18.3991 10.6701 18.4786L10.6701 18.4786M14.3594 17.3056L10.6701 18.4786M10.6701 18.4786C9.41671 18.5515 8.21211 18.4463 7.06961 18.0337M10.6701 18.4786L3.69131 15.245M3.69131 15.245L3.69139 15.2451C4.49899 16.5214 5.57217 17.4929 7.06961 18.0337M3.69131 15.245C3.44441 14.8551 3.23011 14.4496 3.0436 14.0299L3.04354 14.0298M3.69131 15.245L3.04354 14.0298M7.06961 18.0337L6.89975 18.504L7.06961 18.0337ZM3.04354 14.0298C2.96918 13.8626 3.00147 13.7474 3.05435 13.6754C3.1126 13.596 3.24783 13.5019 3.49329 13.5017L3.4934 13.5017M3.04354 14.0298L3.4934 13.5017M3.4934 13.5017C5.08862 13.4996 6.68345 13.4999 8.27883 13.5002M3.4934 13.5017L8.27883 13.5002M8.27883 13.5002C8.85898 13.5003 9.4392 13.5005 10.0195 13.5005L8.27883 13.5002Z" fill="white" stroke="white"/>
<path fill-rule="evenodd" clip-rule="evenodd" d="M3.87936 11.4984H9.9749C10.4915 11.4984 11.0081 11.4983 11.5247 11.4982C13.0751 11.4978 14.6256 11.4975 16.176 11.5C16.6391 11.5008 16.979 11.3277 17.1555 10.8993L17.2734 10.6131C17.8243 9.27635 18.3753 7.93952 18.9219 6.6009C19.1102 6.13885 18.9531 5.70594 18.5039 5.46261C16.6599 4.46401 14.8145 3.46756 12.9691 2.47111C12.143 2.02502 11.3168 1.57894 10.4908 1.13266C10.1543 0.950466 9.82544 0.958673 9.48938 1.14045C7.68576 2.11607 5.88155 3.09054 4.07729 4.06503C3.24067 4.51689 2.40405 4.96876 1.56746 5.42075C1.01693 5.71866 0.873387 6.1208 1.10897 6.69364C1.66921 8.05639 2.22987 9.41955 2.79054 10.7823C3.01599 11.3297 3.27099 11.4984 3.87936 11.4984ZM10.8133 7.42626C10.7778 7.70414 10.8331 8.00881 10.9663 8.3438C11.003 8.43625 11.0457 8.53101 11.094 8.62815C10.9905 8.5131 10.8881 8.41311 10.7867 8.32811L10.7841 8.32599C10.5139 8.10021 10.2503 7.98086 9.9902 7.96672C9.89566 7.96158 9.80157 7.97034 9.70779 7.99293C9.5668 8.02689 9.42648 8.09212 9.28632 8.18842C9.16451 8.27212 9.04282 8.37928 8.9209 8.50979C8.86218 8.57264 8.80342 8.6409 8.74456 8.71456C8.76818 8.55583 8.78198 8.40188 8.78595 8.25273C8.80426 7.56621 8.61445 6.98125 8.21654 6.49785C8.13436 6.39801 8.0433 6.3025 7.94336 6.21133C8.03647 6.2261 8.12693 6.23785 8.21457 6.24623C8.36589 6.2607 8.50881 6.26512 8.64251 6.25771C8.82462 6.24762 8.9896 6.21557 9.13536 6.15703C9.2256 6.12078 9.30846 6.07438 9.38346 6.01676C9.58557 5.86145 9.73051 5.62458 9.80846 5.2851C9.81285 5.26597 9.81703 5.24651 9.821 5.22673C9.84349 5.11447 9.85909 4.99159 9.86746 4.85742C9.88963 4.94689 9.91289 5.03394 9.93765 5.11812C10.0422 5.47354 10.1737 5.77763 10.3646 5.99496C10.599 6.26199 10.9231 6.39805 11.3971 6.33745C11.4547 6.33008 11.5145 6.31981 11.5766 6.30652C11.6481 6.29122 11.7227 6.27192 11.8005 6.24843C11.7045 6.29956 11.6159 6.35207 11.5346 6.40603L11.5277 6.4106C11.0892 6.70339 10.8629 7.03877 10.8133 7.42626Z" fill="white"/>
</svg>
