<svg width="259" height="52" viewBox="0 0 259 52" fill="none" xmlns="http://www.w3.org/2000/svg">
<g clip-path="url(#clip0_94_336)">
<g clip-path="url(#clip1_94_336)">
<path d="M107.127 27.324C107.127 27.324 111.452 2.17969 73.8245 2.17969C73.8245 2.17969 105.397 28.1912 107.126 27.324H107.127Z" fill="url(#paint0_linear_94_336)"/>
<path d="M73.8245 2.17969C73.8245 2.17969 77.7165 16.4862 80.744 21.6892C80.744 21.6892 89.3944 35.5621 104.098 31.2263L110.153 35.9957L111.45 34.2614C111.45 34.2614 79.4473 6.08196 73.8245 2.17969Z" fill="url(#paint1_linear_94_336)"/>
<path d="M19.0516 24.1033C20.3064 25.2883 20.1952 27.346 18.7981 28.3565C16.7062 29.8685 14.3662 30.6053 11.9551 30.6034C5.32191 30.6016 -0.00364577 25.4151 1.87267e-06 19.0454C0.00364951 12.4038 5.30002 7.56273 11.9679 7.56641C15.8143 7.56825 19.1665 9.23094 21.211 12.1797L18.986 13.9067C16.9761 11.3989 14.5067 10.5152 12.1065 10.5152C6.91957 10.5115 3.07131 14.1694 3.06767 19.0472C3.06402 24.061 7.08554 27.6547 11.9551 27.6583C14.99 27.6602 17.4959 25.9001 19.0498 24.1051L19.0516 24.1033Z" fill="#229133"/>
<path d="M23.0586 22.9953L23.0641 21.2278C23.0677 15.9972 27.6947 12.49 32.9966 12.4937V15.2605C28.7252 15.2587 26.2485 17.8767 26.2466 21.0827V22.9953H23.0604H23.0586Z" fill="#229133"/>
<path opacity="0.75" d="M23.0349 21.3656V27.1786C23.0349 28.8578 24.4374 30.2413 26.2266 30.3276V21.3638H23.0349V21.3656Z" fill="#8CC63F"/>
<path d="M39.8213 12.9699C44.3024 11.3973 49.5404 13.8279 51.149 18.432C52.4476 22.1487 51.0377 26.2292 48.0704 28.4964C47.3628 29.0383 46.5657 29.4756 45.6958 29.7806C41.2147 31.3533 35.9858 28.8436 34.4009 24.3075C32.7923 19.7052 35.435 14.5077 39.8213 12.9699ZM44.6836 26.8796C45.0775 26.7418 45.4514 26.5618 45.8016 26.3486C48.0941 24.9487 49.3161 22.0661 48.3859 19.4021C47.3135 16.3339 43.8245 14.8237 40.8371 15.8728C37.7859 16.9439 36.1189 20.3372 37.1676 23.3393C37.8844 25.3896 39.7501 26.7749 41.8037 27.1166C42.7558 27.2746 43.7479 27.2085 44.6854 26.8796H44.6836Z" fill="#229133"/>
<path d="M48.3715 28.3274C47.5033 29.009 46.5203 29.529 45.4789 29.8946L45.1013 30.0269C44.2715 30.319 41.2622 30.6203 40.9722 29.7899C40.6822 28.9594 40.9066 27.4474 41.7364 27.1571L42.4422 27.2471C43.449 27.2306 44.0435 27.0395 44.649 26.8099C45.2363 26.5857 45.2491 26.5986 46.6443 25.77L47.1386 25.2574C47.9337 25.0388 49.0226 26.3046 49.2396 27.102C49.3417 27.4805 48.8821 27.9251 48.3715 28.3274Z" fill="white"/>
<path opacity="0.75" d="M48.4955 28.2449C47.6273 28.9265 46.5203 29.5273 45.4789 29.8948L45.1013 30.027C44.2715 30.3192 41.2622 30.6205 40.9722 29.79C40.6822 28.9596 40.9066 27.4476 41.7364 27.1573L42.4422 27.2473C43.449 27.2308 44.0435 27.0397 44.649 26.8101C45.2363 26.5859 45.2491 26.5988 46.6443 25.7702L47.8298 24.3408C48.5356 24.4308 49.5569 25.4229 50.1734 26.2203C50.0494 26.4794 49.8871 26.7182 49.6956 26.9331C49.2651 27.4163 48.9113 27.9197 48.4955 28.2468V28.2449Z" fill="#8CC63F"/>
<path d="M54.3499 32.8781L54.3572 20.9104C54.3608 16.3596 58.3768 12.4904 63.2629 12.4922C68.1142 12.494 72.1266 16.4018 72.1248 20.9196C72.1211 25.4685 68.0704 29.5012 63.2537 29.4976C60.7405 29.4976 58.7872 28.3971 57.3902 26.9457L57.3847 32.8781H54.3499ZM69.0881 20.9177C69.09 17.8201 66.4746 15.3013 63.2629 15.2995C59.9125 15.2976 57.3975 17.8459 57.3956 20.9104C57.3938 24.1365 59.8706 26.6885 63.2574 26.6903C66.3998 26.6903 69.0881 24.0796 69.09 20.9177H69.0881Z" fill="#229133"/>
<path opacity="0.75" d="M54.3516 29.731V35.4117C54.3516 37.0211 55.7267 38.3255 57.421 38.3255L57.3864 29.731H54.3516Z" fill="#8CC63F"/>
<path d="M217.917 21.428C217.917 16.6549 221.731 12.4917 226.416 12.4917C228.758 12.4917 230.766 13.3038 232.306 14.9279L230.498 16.8239C229.192 15.7068 227.888 15.4019 226.416 15.4019C223.305 15.4019 220.83 18.1099 220.83 21.4261C220.83 24.7423 223.239 27.3824 226.351 27.3824C228.158 27.3824 229.497 26.9084 230.633 25.8594C231.658 27.1803 231.137 29.1296 229.594 29.7469C228.57 30.1548 227.536 30.3275 226.418 30.3275C221.768 30.3275 217.919 26.1644 217.919 21.4261L217.917 21.428Z" fill="#229133"/>
<path d="M128.176 7.56641L119.409 30.6052C117.567 30.6052 116.316 28.6523 117.024 26.8794L124.722 7.56641" fill="#229133"/>
<path opacity="0.75" d="M128.176 7.56629L138.034 30.6051C135.685 30.6051 133.564 29.1445 132.643 26.8939L124.722 7.56445H128.176V7.56629Z" fill="#8CC63F"/>
<path d="M172.864 27.6543C171.445 29.3464 169.655 30.3275 167.19 30.3275C162.528 30.3275 158.61 26.0964 158.61 21.3251C158.61 16.5538 162.528 12.4917 167.19 12.4917C171.851 12.4917 175.949 16.6732 175.949 21.4445M172.864 21.3269C172.864 18.1118 170.432 15.4368 167.19 15.4368C163.947 15.4368 161.549 18.0769 161.549 21.3269C161.549 24.577 164.182 27.3861 167.19 27.3861C170.465 27.3861 172.864 24.7129 172.864 21.3269Z" fill="#229133"/>
<path opacity="0.75" d="M175.948 21.4462V30.0812C174.186 30.0812 172.756 28.65 172.756 26.8825V25.6038L172.86 24.1285C172.973 22.532 174.355 21.3304 175.948 21.4462Z" fill="#8CC63F"/>
<path d="M248.878 27.6543C247.459 29.3464 245.67 30.3275 243.204 30.3275C238.543 30.3275 234.625 26.0964 234.625 21.3251C234.625 16.5538 238.543 12.4917 243.204 12.4917C247.866 12.4917 251.964 16.6732 251.964 21.4445M248.878 21.3269C248.878 18.1118 246.447 15.4368 243.204 15.4368C239.962 15.4368 237.563 18.0769 237.563 21.3269C237.563 24.577 240.197 27.3861 243.204 27.3861C246.48 27.3861 248.878 24.7129 248.878 21.3269Z" fill="#229133"/>
<path opacity="0.75" d="M251.964 21.4462V30.0812C250.203 30.0812 248.773 28.65 248.773 26.8825V25.6038L248.877 24.1285C248.99 22.532 250.372 21.3304 251.964 21.4462Z" fill="#8CC63F"/>
<path d="M178.331 22.9091V8.12305H181.835V22.9091C181.094 22.9091 181.217 22.9164 180.334 22.9091C179.482 22.9017 179.953 22.9091 178.33 22.9091H178.331Z" fill="#229133"/>
<path opacity="0.75" d="M178.331 21.915V27.5517C178.331 29.1794 179.872 30.5225 181.835 30.6051V21.915H178.331Z" fill="#8CC63F"/>
<path d="M190.471 27.015C188.074 23.2468 187.173 21.6466 184.41 15.7013C183.836 14.4649 184.673 13.0318 186.03 12.9326L191.884 23.9045L190.469 27.015H190.471Z" fill="#229133"/>
<path d="M197.011 12.4917C197.011 12.4917 199.15 14.8985 198.485 16.3793L193.338 27.9722C192.448 27.6194 192.382 27.6525 190.469 27.0132L197.009 12.4917H197.011Z" fill="#229133"/>
<path opacity="0.75" d="M190.837 33.7722L190.992 33.4526L194.609 25.1097L191.806 23.8457L186.739 35.6481L187.682 35.9457C187.682 35.9457 189.238 36.6181 190.837 33.7722Z" fill="#8CC63F"/>
<path d="M212.663 22.7382V14.5074C212.663 13.756 213.27 13.146 214.02 13.146C214.895 13.146 215.605 13.857 215.605 14.7352V22.7382" fill="#229133"/>
<path opacity="0.75" d="M212.63 20.8955V27.1935C212.63 29.0124 213.923 30.5134 215.574 30.6053V20.8955H212.63Z" fill="#8CC63F"/>
<path d="M212.663 11.8894V11.0755C212.663 9.44585 213.98 8.12305 215.606 8.12305V8.93694C215.606 10.5666 214.29 11.8894 212.663 11.8894Z" fill="#229133"/>
<path d="M203.982 20.9396V22.5324C203.982 25.4775 206.398 27.9706 210.243 27.9706C210.243 29.7417 208.556 31.0094 206.894 30.4858C203.493 29.411 201.021 26.6423 201.021 22.5324V8.12305H203.982V20.9396Z" fill="#229133"/>
<path opacity="0.75" d="M209.072 14.9097C209.072 17.1492 206.606 18.9663 203.566 18.9663H201.034V14.9097H209.072Z" fill="#8CC63F"/>
<path d="M156.371 30.3295C154.975 30.3295 153.969 29.42 153.566 28.134C153.445 27.7482 153.398 27.3403 153.398 26.9361V21.4942C153.398 18.2185 151.193 15.4938 148.229 15.4938C145.265 15.4938 143.199 18.1486 143.199 21.4244V30.3221H140.201V21.4244C140.201 16.5962 143.715 12.4937 148.229 12.4937C152.743 12.4937 156.371 16.3996 156.371 21.5383" fill="#229133"/>
<path d="M153.396 25.0914C153.403 24.9187 153.4 24.8911 153.396 24.7166C153.387 24.2021 153.409 22.7121 154.613 22.0085C155.13 21.7053 155.729 21.5216 156.373 21.5676V30.3201C155.829 30.3201 155.355 30.1915 154.944 29.9655C154.208 29.5595 153.722 28.8136 153.533 27.9905C153.391 27.3732 153.343 26.3021 153.398 25.0914H153.396Z" fill="white"/>
<path opacity="0.75" d="M156.278 20.0393C156.557 22.4717 156.371 30.3204 156.371 30.3204C155.827 30.3204 155.353 30.1918 154.943 29.9658C154.206 29.5598 153.721 28.8139 153.531 27.9908C153.389 27.3753 153.341 26.4934 153.396 25.2864C153.401 25.178 153.452 23.135 153.396 21.5366C153.378 20.9946 153.615 20.7062 153.983 20.4655C154.589 20.0686 155.326 19.9235 156.042 20.0117L156.278 20.0411V20.0393Z" fill="#8CC63F"/>
<path d="M68.4241 49.7732H67.897V43.5322L65.3181 47.846H65.2288L62.6499 43.5322V49.7732H62.1228V42.7495H62.7794L65.2689 46.9035L67.7584 42.7495H68.4259V49.7732H68.4241Z" fill="url(#paint2_linear_94_336)"/>
<path d="M74.9479 44.7578V49.7753H74.439V48.6417C74.0214 49.395 73.2536 49.8855 72.2979 49.8855C70.8844 49.8855 69.719 48.7519 69.719 47.2675C69.719 45.783 70.8844 44.6494 72.2979 44.6494C73.2536 44.6494 74.0214 45.1418 74.439 45.8932V44.7596H74.9479V44.7578ZM74.439 47.2656C74.439 46.0714 73.5235 45.1289 72.338 45.1289C71.1525 45.1289 70.226 46.0714 70.226 47.2656C70.226 48.4598 71.1525 49.4023 72.338 49.4023C73.5235 49.4023 74.439 48.4598 74.439 47.2656Z" fill="url(#paint3_linear_94_336)"/>
<path d="M80.6948 46.6537V49.7733H80.186V46.6537C80.186 45.7314 79.6589 45.1288 78.7215 45.1288C77.784 45.1288 76.9779 45.7718 76.9779 47.1259V49.7752H76.48V44.7577H76.9779V45.7112C77.3572 44.969 77.9938 44.6475 78.7616 44.6475C79.9471 44.6475 80.693 45.4393 80.693 46.6537H80.6948Z" fill="url(#paint4_linear_94_336)"/>
<path d="M86.9887 44.7578V49.7753H86.4798V48.6417C86.0622 49.395 85.2943 49.8855 84.3386 49.8855C82.9252 49.8855 81.7598 48.7519 81.7598 47.2675C81.7598 45.783 82.9252 44.6494 84.3386 44.6494C85.2943 44.6494 86.0622 45.1418 86.4798 45.8932V44.7596H86.9887V44.7578ZM86.4816 47.2656C86.4816 46.0714 85.5661 45.1289 84.3806 45.1289C83.1951 45.1289 82.2686 46.0714 82.2686 47.2656C82.2686 48.4598 83.1951 49.4023 84.3806 49.4023C85.5661 49.4023 86.4816 48.4598 86.4816 47.2656Z" fill="url(#paint5_linear_94_336)"/>
<path d="M93.4433 44.7574V49.5324C93.4433 51.0371 92.3381 51.8896 90.9629 51.8896C89.7975 51.8896 88.9713 51.4174 88.612 50.6862L89.0497 50.4363C89.3087 50.9673 89.8668 51.41 90.9629 51.41C92.2086 51.41 92.9454 50.677 92.9454 49.5342V48.6119C92.5369 49.3836 91.7708 49.887 90.8042 49.887C89.3798 49.887 88.2253 48.7534 88.2253 47.2689C88.2253 45.7844 89.3798 44.6509 90.8042 44.6509C91.7708 44.6509 92.5369 45.1524 92.9454 45.9259V44.7629H93.4433V44.7574ZM92.9454 47.2653C92.9454 46.0711 92.0189 45.1286 90.8334 45.1286C89.6479 45.1286 88.7214 46.0711 88.7214 47.2653C88.7214 48.4595 89.6479 49.402 90.8334 49.402C92.0189 49.402 92.9454 48.4595 92.9454 47.2653Z" fill="url(#paint6_linear_94_336)"/>
<path d="M99.6789 47.2857C99.6789 47.3666 99.6697 47.4456 99.6697 47.5264H95.1576C95.278 48.66 96.1334 49.4022 97.2696 49.4022C98.0867 49.4022 98.7031 49.0219 98.9931 48.4891L99.4308 48.75C99.0223 49.4316 98.2453 49.8836 97.2587 49.8836C95.7248 49.8836 94.6396 48.7794 94.6396 47.2655C94.6396 45.7516 95.6956 44.6475 97.2185 44.6475C98.7414 44.6475 99.6789 45.9115 99.6789 47.2857ZM95.1558 47.034H99.1591C99.0496 45.8104 98.1924 45.127 97.2167 45.127C96.0805 45.127 95.2543 45.9188 95.154 47.034H95.1558Z" fill="url(#paint7_linear_94_336)"/>
<path d="M117.206 49.7732H116.679V43.5322L114.1 47.846H114.01L111.432 43.5322V49.7732H110.905V42.7495H111.561L114.051 46.9035L116.54 42.7495H117.208V49.7732H117.206Z" fill="black"/>
<path d="M118.501 47.2655C118.501 45.781 119.666 44.6475 121.12 44.6475C122.573 44.6475 123.73 45.781 123.73 47.2655C123.73 48.75 122.564 49.8836 121.12 49.8836C119.675 49.8836 118.501 48.75 118.501 47.2655ZM123.221 47.2655C123.221 46.0713 122.305 45.1288 121.12 45.1288C119.934 45.1288 119.008 46.0713 119.008 47.2655C119.008 48.4597 119.934 49.4022 121.12 49.4022C122.305 49.4022 123.221 48.4597 123.221 47.2655Z" fill="black"/>
<path d="M129.137 46.6537V49.7733H128.628V46.6537C128.628 45.7314 128.101 45.1288 127.164 45.1288C126.226 45.1288 125.42 45.7718 125.42 47.1259V49.7752H124.922V44.7577H125.42V45.7112C125.798 44.969 126.436 44.6475 127.204 44.6475C128.389 44.6475 129.135 45.4393 129.135 46.6537H129.137Z" fill="black"/>
<path d="M130.392 43.1408C130.392 42.9296 130.571 42.7495 130.79 42.7495C131.009 42.7495 131.188 42.9296 131.188 43.1408C131.188 43.3521 131.009 43.5414 130.79 43.5414C130.571 43.5414 130.392 43.3613 130.392 43.1408ZM130.542 44.7576H131.04V49.7751H130.542V44.7576Z" fill="black"/>
<path d="M133.639 45.248V48.509C133.639 49.3927 134.108 49.4111 135.123 49.3211V49.773C133.819 49.9733 133.132 49.6518 133.132 48.509V45.248H132.036V44.7556H133.132V43.5008L133.641 43.3501V44.7556H135.125V45.248H133.641H133.639Z" fill="black"/>
<path d="M135.681 47.2655C135.681 45.781 136.847 44.6475 138.3 44.6475C139.754 44.6475 140.91 45.781 140.91 47.2655C140.91 48.75 139.745 49.8836 138.3 49.8836C136.856 49.8836 135.681 48.75 135.681 47.2655ZM140.401 47.2655C140.401 46.0713 139.486 45.1288 138.3 45.1288C137.115 45.1288 136.188 46.0713 136.188 47.2655C136.188 48.4597 137.115 49.4022 138.3 49.4022C139.486 49.4022 140.401 48.4597 140.401 47.2655Z" fill="black"/>
<path d="M144.266 44.6858V45.1672C143.409 45.1672 142.603 45.6981 142.603 46.9823V49.7713H142.105V44.7538H142.603V45.7367C142.942 44.9449 143.589 44.6821 144.266 44.6821V44.6858Z" fill="black"/>
<path d="M161.793 49.7732H161.266V43.5322L158.687 47.846H158.597L156.019 43.5322V49.7732H155.491V42.7495H156.148L158.638 46.9035L161.127 42.7495H161.795V49.7732H161.793Z" fill="black"/>
<path d="M163.277 43.1408C163.277 42.9296 163.456 42.7495 163.675 42.7495C163.894 42.7495 164.073 42.9296 164.073 43.1408C164.073 43.3521 163.894 43.5414 163.675 43.5414C163.456 43.5414 163.277 43.3613 163.277 43.1408ZM163.427 44.7576H163.925V49.7751H163.427V44.7576Z" fill="black"/>
<path d="M166.524 45.248V48.509C166.524 49.3927 166.993 49.4111 168.008 49.3211V49.773C166.704 49.9733 166.017 49.6518 166.017 48.509V45.248H164.921V44.7556H166.017V43.5008L166.526 43.3501V44.7556H168.01V45.248H166.526H166.524Z" fill="black"/>
<path d="M169.053 43.1408C169.053 42.9296 169.232 42.7495 169.451 42.7495C169.67 42.7495 169.849 42.9296 169.849 43.1408C169.849 43.3521 169.67 43.5414 169.451 43.5414C169.232 43.5414 169.053 43.3613 169.053 43.1408ZM169.203 44.7576H169.701V49.7751H169.203V44.7576Z" fill="black"/>
<path d="M176.155 44.7574V49.5324C176.155 51.0371 175.05 51.8896 173.675 51.8896C172.51 51.8896 171.683 51.4174 171.324 50.6862L171.762 50.4363C172.021 50.9673 172.579 51.41 173.675 51.41C174.921 51.41 175.658 50.677 175.658 49.5342V48.6119C175.249 49.3836 174.483 49.887 173.516 49.887C172.092 49.887 170.938 48.7534 170.938 47.2689C170.938 45.7844 172.092 44.6509 173.516 44.6509C174.483 44.6509 175.249 45.1524 175.658 45.9259V44.7629H176.155V44.7574ZM175.658 47.2653C175.658 46.0711 174.731 45.1286 173.546 45.1286C172.36 45.1286 171.434 46.0711 171.434 47.2653C171.434 48.4595 172.36 49.402 173.546 49.402C174.731 49.402 175.658 48.4595 175.658 47.2653Z" fill="black"/>
<path d="M182.581 44.7578V49.7753H182.072V48.6417C181.654 49.395 180.886 49.8855 179.931 49.8855C178.517 49.8855 177.352 48.7519 177.352 47.2675C177.352 45.783 178.517 44.6494 179.931 44.6494C180.886 44.6494 181.654 45.1418 182.072 45.8932V44.7596H182.581V44.7578ZM182.072 47.2656C182.072 46.0714 181.156 45.1289 179.971 45.1289C178.785 45.1289 177.859 46.0714 177.859 47.2656C177.859 48.4598 178.785 49.4023 179.971 49.4023C181.156 49.4023 182.072 48.4598 182.072 47.2656Z" fill="black"/>
<path d="M185.18 45.248V48.509C185.18 49.3927 185.648 49.4111 186.664 49.3211V49.773C185.36 49.9733 184.673 49.6518 184.673 48.509V45.248H183.576V44.7556H184.673V43.5008L185.181 43.3501V44.7556H186.666V45.248H185.181H185.18Z" fill="black"/>
<path d="M192.262 47.2857C192.262 47.3666 192.252 47.4456 192.252 47.5264H187.74C187.861 48.66 188.716 49.4022 189.852 49.4022C190.669 49.4022 191.286 49.0219 191.576 48.4891L192.014 48.75C191.605 49.4316 190.828 49.8836 189.841 49.8836C188.308 49.8836 187.222 48.7794 187.222 47.2655C187.222 45.7516 188.278 44.6475 189.801 44.6475C191.324 44.6475 192.262 45.9115 192.262 47.2857ZM187.739 47.034H191.742C191.632 45.8104 190.775 45.127 189.799 45.127C188.663 45.127 187.837 45.9188 187.737 47.034H187.739Z" fill="black"/>
<path d="M105.473 43.8428H105.105V49.9736H105.473V43.8428Z" fill="url(#paint8_linear_94_336)"/>
<path d="M150.062 43.8428H149.694V49.9736H150.062V43.8428Z" fill="url(#paint9_linear_94_336)"/>
<path d="M68.4241 49.7732H67.897V43.5322L65.3181 47.846H65.2288L62.6499 43.5322V49.7732H62.1228V42.7495H62.7794L65.2689 46.9035L67.7584 42.7495H68.4259V49.7732H68.4241Z" fill="url(#paint10_linear_94_336)"/>
<path d="M74.9479 44.7578V49.7753H74.439V48.6417C74.0214 49.395 73.2536 49.8855 72.2979 49.8855C70.8844 49.8855 69.719 48.7519 69.719 47.2675C69.719 45.783 70.8844 44.6494 72.2979 44.6494C73.2536 44.6494 74.0214 45.1418 74.439 45.8932V44.7596H74.9479V44.7578ZM74.439 47.2656C74.439 46.0714 73.5235 45.1289 72.338 45.1289C71.1525 45.1289 70.226 46.0714 70.226 47.2656C70.226 48.4598 71.1525 49.4023 72.338 49.4023C73.5235 49.4023 74.439 48.4598 74.439 47.2656Z" fill="url(#paint11_linear_94_336)"/>
<path d="M80.6948 46.6537V49.7733H80.186V46.6537C80.186 45.7314 79.6589 45.1288 78.7215 45.1288C77.784 45.1288 76.9779 45.7718 76.9779 47.1259V49.7752H76.48V44.7577H76.9779V45.7112C77.3572 44.969 77.9938 44.6475 78.7616 44.6475C79.9471 44.6475 80.693 45.4393 80.693 46.6537H80.6948Z" fill="url(#paint12_linear_94_336)"/>
<path d="M86.9887 44.7578V49.7753H86.4798V48.6417C86.0622 49.395 85.2943 49.8855 84.3386 49.8855C82.9252 49.8855 81.7598 48.7519 81.7598 47.2675C81.7598 45.783 82.9252 44.6494 84.3386 44.6494C85.2943 44.6494 86.0622 45.1418 86.4798 45.8932V44.7596H86.9887V44.7578ZM86.4816 47.2656C86.4816 46.0714 85.5661 45.1289 84.3806 45.1289C83.1951 45.1289 82.2686 46.0714 82.2686 47.2656C82.2686 48.4598 83.1951 49.4023 84.3806 49.4023C85.5661 49.4023 86.4816 48.4598 86.4816 47.2656Z" fill="url(#paint13_linear_94_336)"/>
<path d="M93.4433 44.7574V49.5324C93.4433 51.0371 92.3381 51.8896 90.9629 51.8896C89.7975 51.8896 88.9713 51.4174 88.612 50.6862L89.0497 50.4363C89.3087 50.9673 89.8668 51.41 90.9629 51.41C92.2086 51.41 92.9454 50.677 92.9454 49.5342V48.6119C92.5369 49.3836 91.7708 49.887 90.8042 49.887C89.3798 49.887 88.2253 48.7534 88.2253 47.2689C88.2253 45.7844 89.3798 44.6509 90.8042 44.6509C91.7708 44.6509 92.5369 45.1524 92.9454 45.9259V44.7629H93.4433V44.7574ZM92.9454 47.2653C92.9454 46.0711 92.0189 45.1286 90.8334 45.1286C89.6479 45.1286 88.7214 46.0711 88.7214 47.2653C88.7214 48.4595 89.6479 49.402 90.8334 49.402C92.0189 49.402 92.9454 48.4595 92.9454 47.2653Z" fill="url(#paint14_linear_94_336)"/>
<path d="M99.6789 47.2857C99.6789 47.3666 99.6697 47.4456 99.6697 47.5264H95.1576C95.278 48.66 96.1334 49.4022 97.2696 49.4022C98.0867 49.4022 98.7031 49.0219 98.9931 48.4891L99.4308 48.75C99.0223 49.4316 98.2453 49.8836 97.2587 49.8836C95.7248 49.8836 94.6396 48.7794 94.6396 47.2655C94.6396 45.7516 95.6956 44.6475 97.2185 44.6475C98.7414 44.6475 99.6789 45.9115 99.6789 47.2857ZM95.1558 47.034H99.1591C99.0496 45.8104 98.1924 45.127 97.2167 45.127C96.0805 45.127 95.2543 45.9188 95.154 47.034H95.1558Z" fill="url(#paint15_linear_94_336)"/>
<path d="M117.206 49.7732H116.679V43.5322L114.1 47.846H114.01L111.432 43.5322V49.7732H110.905V42.7495H111.561L114.051 46.9035L116.54 42.7495H117.208V49.7732H117.206Z" fill="url(#paint16_linear_94_336)"/>
<path d="M118.501 47.2655C118.501 45.781 119.666 44.6475 121.12 44.6475C122.573 44.6475 123.73 45.781 123.73 47.2655C123.73 48.75 122.564 49.8836 121.12 49.8836C119.675 49.8836 118.501 48.75 118.501 47.2655ZM123.221 47.2655C123.221 46.0713 122.305 45.1288 121.12 45.1288C119.934 45.1288 119.008 46.0713 119.008 47.2655C119.008 48.4597 119.934 49.4022 121.12 49.4022C122.305 49.4022 123.221 48.4597 123.221 47.2655Z" fill="url(#paint17_linear_94_336)"/>
<path d="M129.137 46.6537V49.7733H128.628V46.6537C128.628 45.7314 128.101 45.1288 127.164 45.1288C126.226 45.1288 125.42 45.7718 125.42 47.1259V49.7752H124.922V44.7577H125.42V45.7112C125.798 44.969 126.436 44.6475 127.204 44.6475C128.389 44.6475 129.135 45.4393 129.135 46.6537H129.137Z" fill="url(#paint18_linear_94_336)"/>
<path d="M130.392 43.1408C130.392 42.9296 130.571 42.7495 130.79 42.7495C131.009 42.7495 131.188 42.9296 131.188 43.1408C131.188 43.3521 131.009 43.5414 130.79 43.5414C130.571 43.5414 130.392 43.3613 130.392 43.1408ZM130.542 44.7576H131.04V49.7751H130.542V44.7576Z" fill="url(#paint19_linear_94_336)"/>
<path d="M133.639 45.248V48.509C133.639 49.3927 134.108 49.4111 135.123 49.3211V49.773C133.819 49.9733 133.132 49.6518 133.132 48.509V45.248H132.036V44.7556H133.132V43.5008L133.641 43.3501V44.7556H135.125V45.248H133.641H133.639Z" fill="url(#paint20_linear_94_336)"/>
<path d="M135.681 47.2655C135.681 45.781 136.847 44.6475 138.3 44.6475C139.754 44.6475 140.91 45.781 140.91 47.2655C140.91 48.75 139.745 49.8836 138.3 49.8836C136.856 49.8836 135.681 48.75 135.681 47.2655ZM140.401 47.2655C140.401 46.0713 139.486 45.1288 138.3 45.1288C137.115 45.1288 136.188 46.0713 136.188 47.2655C136.188 48.4597 137.115 49.4022 138.3 49.4022C139.486 49.4022 140.401 48.4597 140.401 47.2655Z" fill="url(#paint21_linear_94_336)"/>
<path d="M144.266 44.6858V45.1672C143.409 45.1672 142.603 45.6981 142.603 46.9823V49.7713H142.105V44.7538H142.603V45.7367C142.942 44.9449 143.589 44.6821 144.266 44.6821V44.6858Z" fill="url(#paint22_linear_94_336)"/>
<path d="M161.793 49.7732H161.266V43.5322L158.687 47.846H158.597L156.019 43.5322V49.7732H155.491V42.7495H156.148L158.638 46.9035L161.127 42.7495H161.795V49.7732H161.793Z" fill="url(#paint23_linear_94_336)"/>
<path d="M163.277 43.1408C163.277 42.9296 163.456 42.7495 163.675 42.7495C163.894 42.7495 164.073 42.9296 164.073 43.1408C164.073 43.3521 163.894 43.5414 163.675 43.5414C163.456 43.5414 163.277 43.3613 163.277 43.1408ZM163.427 44.7576H163.925V49.7751H163.427V44.7576Z" fill="url(#paint24_linear_94_336)"/>
<path d="M166.524 45.248V48.509C166.524 49.3927 166.993 49.4111 168.008 49.3211V49.773C166.704 49.9733 166.017 49.6518 166.017 48.509V45.248H164.921V44.7556H166.017V43.5008L166.526 43.3501V44.7556H168.01V45.248H166.526H166.524Z" fill="url(#paint25_linear_94_336)"/>
<path d="M169.053 43.1408C169.053 42.9296 169.232 42.7495 169.451 42.7495C169.67 42.7495 169.849 42.9296 169.849 43.1408C169.849 43.3521 169.67 43.5414 169.451 43.5414C169.232 43.5414 169.053 43.3613 169.053 43.1408ZM169.203 44.7576H169.701V49.7751H169.203V44.7576Z" fill="url(#paint26_linear_94_336)"/>
<path d="M176.155 44.7574V49.5324C176.155 51.0371 175.05 51.8896 173.675 51.8896C172.51 51.8896 171.683 51.4174 171.324 50.6862L171.762 50.4363C172.021 50.9673 172.579 51.41 173.675 51.41C174.921 51.41 175.658 50.677 175.658 49.5342V48.6119C175.249 49.3836 174.483 49.887 173.516 49.887C172.092 49.887 170.938 48.7534 170.938 47.2689C170.938 45.7844 172.092 44.6509 173.516 44.6509C174.483 44.6509 175.249 45.1524 175.658 45.9259V44.7629H176.155V44.7574ZM175.658 47.2653C175.658 46.0711 174.731 45.1286 173.546 45.1286C172.36 45.1286 171.434 46.0711 171.434 47.2653C171.434 48.4595 172.36 49.402 173.546 49.402C174.731 49.402 175.658 48.4595 175.658 47.2653Z" fill="url(#paint27_linear_94_336)"/>
<path d="M182.581 44.7578V49.7753H182.072V48.6417C181.654 49.395 180.886 49.8855 179.931 49.8855C178.517 49.8855 177.352 48.7519 177.352 47.2675C177.352 45.783 178.517 44.6494 179.931 44.6494C180.886 44.6494 181.654 45.1418 182.072 45.8932V44.7596H182.581V44.7578ZM182.072 47.2656C182.072 46.0714 181.156 45.1289 179.971 45.1289C178.785 45.1289 177.859 46.0714 177.859 47.2656C177.859 48.4598 178.785 49.4023 179.971 49.4023C181.156 49.4023 182.072 48.4598 182.072 47.2656Z" fill="url(#paint28_linear_94_336)"/>
<path d="M185.18 45.248V48.509C185.18 49.3927 185.648 49.4111 186.664 49.3211V49.773C185.36 49.9733 184.673 49.6518 184.673 48.509V45.248H183.576V44.7556H184.673V43.5008L185.181 43.3501V44.7556H186.666V45.248H185.181H185.18Z" fill="url(#paint29_linear_94_336)"/>
<path d="M192.262 47.2857C192.262 47.3666 192.252 47.4456 192.252 47.5264H187.74C187.861 48.66 188.716 49.4022 189.852 49.4022C190.669 49.4022 191.286 49.0219 191.576 48.4891L192.014 48.75C191.605 49.4316 190.828 49.8836 189.841 49.8836C188.308 49.8836 187.222 48.7794 187.222 47.2655C187.222 45.7516 188.278 44.6475 189.801 44.6475C191.324 44.6475 192.262 45.9115 192.262 47.2857ZM187.739 47.034H191.742C191.632 45.8104 190.775 45.127 189.799 45.127C188.663 45.127 187.837 45.9188 187.737 47.034H187.739Z" fill="url(#paint30_linear_94_336)"/>
<path d="M105.473 43.8428H105.105V49.9736H105.473V43.8428Z" fill="url(#paint31_linear_94_336)"/>
<path d="M150.062 43.8428H149.694V49.9736H150.062V43.8428Z" fill="url(#paint32_linear_94_336)"/>
<path d="M68.4241 49.7732H67.897V43.5322L65.3181 47.846H65.2288L62.6499 43.5322V49.7732H62.1228V42.7495H62.7794L65.2689 46.9035L67.7584 42.7495H68.4259V49.7732H68.4241Z" stroke="url(#paint33_linear_94_336)" stroke-width="0.529337" stroke-miterlimit="10"/>
<path d="M74.9479 44.7578V49.7753H74.439V48.6417C74.0214 49.395 73.2536 49.8855 72.2979 49.8855C70.8844 49.8855 69.719 48.7519 69.719 47.2675C69.719 45.783 70.8844 44.6494 72.2979 44.6494C73.2536 44.6494 74.0214 45.1418 74.439 45.8932V44.7596H74.9479V44.7578ZM74.439 47.2656C74.439 46.0714 73.5235 45.1289 72.338 45.1289C71.1525 45.1289 70.226 46.0714 70.226 47.2656C70.226 48.4598 71.1525 49.4023 72.338 49.4023C73.5235 49.4023 74.439 48.4598 74.439 47.2656Z" stroke="url(#paint34_linear_94_336)" stroke-width="0.529337" stroke-miterlimit="10"/>
<path d="M80.6948 46.6537V49.7733H80.186V46.6537C80.186 45.7314 79.6589 45.1288 78.7215 45.1288C77.784 45.1288 76.9779 45.7718 76.9779 47.1259V49.7752H76.48V44.7577H76.9779V45.7112C77.3572 44.969 77.9938 44.6475 78.7616 44.6475C79.9471 44.6475 80.693 45.4393 80.693 46.6537H80.6948Z" stroke="url(#paint35_linear_94_336)" stroke-width="0.529337" stroke-miterlimit="10"/>
<path d="M86.9887 44.7578V49.7753H86.4798V48.6417C86.0622 49.395 85.2943 49.8855 84.3386 49.8855C82.9252 49.8855 81.7598 48.7519 81.7598 47.2675C81.7598 45.783 82.9252 44.6494 84.3386 44.6494C85.2943 44.6494 86.0622 45.1418 86.4798 45.8932V44.7596H86.9887V44.7578ZM86.4816 47.2656C86.4816 46.0714 85.5661 45.1289 84.3806 45.1289C83.1951 45.1289 82.2686 46.0714 82.2686 47.2656C82.2686 48.4598 83.1951 49.4023 84.3806 49.4023C85.5661 49.4023 86.4816 48.4598 86.4816 47.2656Z" stroke="url(#paint36_linear_94_336)" stroke-width="0.529337" stroke-miterlimit="10"/>
<path d="M93.4433 44.7574V49.5324C93.4433 51.0371 92.3381 51.8896 90.9629 51.8896C89.7975 51.8896 88.9713 51.4174 88.612 50.6862L89.0497 50.4363C89.3087 50.9673 89.8668 51.41 90.9629 51.41C92.2086 51.41 92.9454 50.677 92.9454 49.5342V48.6119C92.5369 49.3836 91.7708 49.887 90.8042 49.887C89.3798 49.887 88.2253 48.7534 88.2253 47.2689C88.2253 45.7844 89.3798 44.6509 90.8042 44.6509C91.7708 44.6509 92.5369 45.1524 92.9454 45.9259V44.7629H93.4433V44.7574ZM92.9454 47.2653C92.9454 46.0711 92.0189 45.1286 90.8334 45.1286C89.6479 45.1286 88.7214 46.0711 88.7214 47.2653C88.7214 48.4595 89.6479 49.402 90.8334 49.402C92.0189 49.402 92.9454 48.4595 92.9454 47.2653Z" stroke="url(#paint37_linear_94_336)" stroke-width="0.529337" stroke-miterlimit="10"/>
<path d="M99.6789 47.2857C99.6789 47.3666 99.6697 47.4456 99.6697 47.5264H95.1576C95.278 48.66 96.1334 49.4022 97.2696 49.4022C98.0867 49.4022 98.7031 49.0219 98.9931 48.4891L99.4308 48.75C99.0223 49.4316 98.2453 49.8836 97.2587 49.8836C95.7248 49.8836 94.6396 48.7794 94.6396 47.2655C94.6396 45.7516 95.6956 44.6475 97.2185 44.6475C98.7414 44.6475 99.6789 45.9115 99.6789 47.2857ZM95.1558 47.034H99.1591C99.0496 45.8104 98.1924 45.127 97.2167 45.127C96.0805 45.127 95.2543 45.9188 95.154 47.034H95.1558Z" stroke="url(#paint38_linear_94_336)" stroke-width="0.529337" stroke-miterlimit="10"/>
<path d="M117.206 49.7732H116.679V43.5322L114.1 47.846H114.01L111.432 43.5322V49.7732H110.905V42.7495H111.561L114.051 46.9035L116.54 42.7495H117.208V49.7732H117.206Z" stroke="url(#paint39_linear_94_336)" stroke-width="0.529337" stroke-miterlimit="10"/>
<path d="M118.501 47.2655C118.501 45.781 119.666 44.6475 121.12 44.6475C122.573 44.6475 123.73 45.781 123.73 47.2655C123.73 48.75 122.564 49.8836 121.12 49.8836C119.675 49.8836 118.501 48.75 118.501 47.2655ZM123.221 47.2655C123.221 46.0713 122.305 45.1288 121.12 45.1288C119.934 45.1288 119.008 46.0713 119.008 47.2655C119.008 48.4597 119.934 49.4022 121.12 49.4022C122.305 49.4022 123.221 48.4597 123.221 47.2655Z" stroke="url(#paint40_linear_94_336)" stroke-width="0.529337" stroke-miterlimit="10"/>
<path d="M129.137 46.6537V49.7733H128.628V46.6537C128.628 45.7314 128.101 45.1288 127.164 45.1288C126.226 45.1288 125.42 45.7718 125.42 47.1259V49.7752H124.922V44.7577H125.42V45.7112C125.798 44.969 126.436 44.6475 127.204 44.6475C128.389 44.6475 129.135 45.4393 129.135 46.6537H129.137Z" stroke="url(#paint41_linear_94_336)" stroke-width="0.529337" stroke-miterlimit="10"/>
<path d="M130.392 43.1408C130.392 42.9296 130.571 42.7495 130.79 42.7495C131.009 42.7495 131.188 42.9296 131.188 43.1408C131.188 43.3521 131.009 43.5414 130.79 43.5414C130.571 43.5414 130.392 43.3613 130.392 43.1408ZM130.542 44.7576H131.04V49.7751H130.542V44.7576Z" stroke="url(#paint42_linear_94_336)" stroke-width="0.529337" stroke-miterlimit="10"/>
<path d="M133.639 45.248V48.509C133.639 49.3927 134.108 49.4111 135.123 49.3211V49.773C133.819 49.9733 133.132 49.6518 133.132 48.509V45.248H132.036V44.7556H133.132V43.5008L133.641 43.3501V44.7556H135.125V45.248H133.641H133.639Z" stroke="url(#paint43_linear_94_336)" stroke-width="0.529337" stroke-miterlimit="10"/>
<path d="M135.681 47.2655C135.681 45.781 136.847 44.6475 138.3 44.6475C139.754 44.6475 140.91 45.781 140.91 47.2655C140.91 48.75 139.745 49.8836 138.3 49.8836C136.856 49.8836 135.681 48.75 135.681 47.2655ZM140.401 47.2655C140.401 46.0713 139.486 45.1288 138.3 45.1288C137.115 45.1288 136.188 46.0713 136.188 47.2655C136.188 48.4597 137.115 49.4022 138.3 49.4022C139.486 49.4022 140.401 48.4597 140.401 47.2655Z" stroke="url(#paint44_linear_94_336)" stroke-width="0.529337" stroke-miterlimit="10"/>
<path d="M144.266 44.6858V45.1672C143.409 45.1672 142.603 45.6981 142.603 46.9823V49.7713H142.105V44.7538H142.603V45.7367C142.942 44.9449 143.589 44.6821 144.266 44.6821V44.6858Z" stroke="url(#paint45_linear_94_336)" stroke-width="0.529337" stroke-miterlimit="10"/>
<path d="M161.793 49.7732H161.266V43.5322L158.687 47.846H158.597L156.019 43.5322V49.7732H155.491V42.7495H156.148L158.638 46.9035L161.127 42.7495H161.795V49.7732H161.793Z" stroke="url(#paint46_linear_94_336)" stroke-width="0.529337" stroke-miterlimit="10"/>
<path d="M163.277 43.1408C163.277 42.9296 163.456 42.7495 163.675 42.7495C163.894 42.7495 164.073 42.9296 164.073 43.1408C164.073 43.3521 163.894 43.5414 163.675 43.5414C163.456 43.5414 163.277 43.3613 163.277 43.1408ZM163.427 44.7576H163.925V49.7751H163.427V44.7576Z" stroke="url(#paint47_linear_94_336)" stroke-width="0.529337" stroke-miterlimit="10"/>
<path d="M166.524 45.248V48.509C166.524 49.3927 166.993 49.4111 168.008 49.3211V49.773C166.704 49.9733 166.017 49.6518 166.017 48.509V45.248H164.921V44.7556H166.017V43.5008L166.526 43.3501V44.7556H168.01V45.248H166.526H166.524Z" stroke="url(#paint48_linear_94_336)" stroke-width="0.529337" stroke-miterlimit="10"/>
<path d="M169.053 43.1408C169.053 42.9296 169.232 42.7495 169.451 42.7495C169.67 42.7495 169.849 42.9296 169.849 43.1408C169.849 43.3521 169.67 43.5414 169.451 43.5414C169.232 43.5414 169.053 43.3613 169.053 43.1408ZM169.203 44.7576H169.701V49.7751H169.203V44.7576Z" stroke="url(#paint49_linear_94_336)" stroke-width="0.529337" stroke-miterlimit="10"/>
<path d="M176.155 44.7574V49.5324C176.155 51.0371 175.05 51.8896 173.675 51.8896C172.51 51.8896 171.683 51.4174 171.324 50.6862L171.762 50.4363C172.021 50.9673 172.579 51.41 173.675 51.41C174.921 51.41 175.658 50.677 175.658 49.5342V48.6119C175.249 49.3836 174.483 49.887 173.516 49.887C172.092 49.887 170.938 48.7534 170.938 47.2689C170.938 45.7844 172.092 44.6509 173.516 44.6509C174.483 44.6509 175.249 45.1524 175.658 45.9259V44.7629H176.155V44.7574ZM175.658 47.2653C175.658 46.0711 174.731 45.1286 173.546 45.1286C172.36 45.1286 171.434 46.0711 171.434 47.2653C171.434 48.4595 172.36 49.402 173.546 49.402C174.731 49.402 175.658 48.4595 175.658 47.2653Z" stroke="url(#paint50_linear_94_336)" stroke-width="0.529337" stroke-miterlimit="10"/>
<path d="M182.581 44.7578V49.7753H182.072V48.6417C181.654 49.395 180.886 49.8855 179.931 49.8855C178.517 49.8855 177.352 48.7519 177.352 47.2675C177.352 45.783 178.517 44.6494 179.931 44.6494C180.886 44.6494 181.654 45.1418 182.072 45.8932V44.7596H182.581V44.7578ZM182.072 47.2656C182.072 46.0714 181.156 45.1289 179.971 45.1289C178.785 45.1289 177.859 46.0714 177.859 47.2656C177.859 48.4598 178.785 49.4023 179.971 49.4023C181.156 49.4023 182.072 48.4598 182.072 47.2656Z" stroke="url(#paint51_linear_94_336)" stroke-width="0.529337" stroke-miterlimit="10"/>
<path d="M185.18 45.248V48.509C185.18 49.3927 185.648 49.4111 186.664 49.3211V49.773C185.36 49.9733 184.673 49.6518 184.673 48.509V45.248H183.576V44.7556H184.673V43.5008L185.181 43.3501V44.7556H186.666V45.248H185.181H185.18Z" stroke="url(#paint52_linear_94_336)" stroke-width="0.529337" stroke-miterlimit="10"/>
<path d="M192.262 47.2857C192.262 47.3666 192.252 47.4456 192.252 47.5264H187.74C187.861 48.66 188.716 49.4022 189.852 49.4022C190.669 49.4022 191.286 49.0219 191.576 48.4891L192.014 48.75C191.605 49.4316 190.828 49.8836 189.841 49.8836C188.308 49.8836 187.222 48.7794 187.222 47.2655C187.222 45.7516 188.278 44.6475 189.801 44.6475C191.324 44.6475 192.262 45.9115 192.262 47.2857ZM187.739 47.034H191.742C191.632 45.8104 190.775 45.127 189.799 45.127C188.663 45.127 187.837 45.9188 187.737 47.034H187.739Z" stroke="url(#paint53_linear_94_336)" stroke-width="0.529337" stroke-miterlimit="10"/>
<path d="M105.473 43.8428H105.105V49.9736H105.473V43.8428Z" stroke="url(#paint54_linear_94_336)" stroke-width="0.529337" stroke-miterlimit="10"/>
<path d="M150.062 43.8428H149.694V49.9736H150.062V43.8428Z" stroke="url(#paint55_linear_94_336)" stroke-width="0.529337" stroke-miterlimit="10"/>
</g>
</g>
<rect x="248.938" y="0.2125" width="9.22806" height="9.22806" rx="4.61403" stroke="#232323" stroke-width="0.3"/>
<path d="M253.011 3.66455V3.91133H252.377V5.98892H252.073V3.91133H251.437V3.66455H253.011Z" fill="#232323" stroke="#232323" stroke-width="0.2"/>
<path d="M255.668 3.67285V5.98055H255.365V4.25978L254.598 5.98055H254.384L253.614 4.25645V5.98055H253.311V3.67285H253.637L254.491 5.58037L255.345 3.67285H255.668Z" fill="#232323" stroke="#232323" stroke-width="0.2"/>
<defs>
<linearGradient id="paint0_linear_94_336" x1="73.8245" y1="14.7629" x2="107.279" y2="14.7629" gradientUnits="userSpaceOnUse">
<stop stop-color="#88C43F" stop-opacity="0.63"/>
<stop offset="1" stop-color="#229133"/>
</linearGradient>
<linearGradient id="paint1_linear_94_336" x1="-9.38081e-05" y1="19.0877" x2="111.452" y2="19.0877" gradientUnits="userSpaceOnUse">
<stop stop-color="#88C43F" stop-opacity="0.63"/>
<stop offset="1" stop-color="#229133"/>
</linearGradient>
<linearGradient id="paint2_linear_94_336" x1="62.1192" y1="46.2623" x2="68.4241" y2="46.2623" gradientUnits="userSpaceOnUse">
<stop stop-color="#BDC43F" stop-opacity="0.63"/>
<stop offset="1" stop-color="#339734" stop-opacity="0.98"/>
</linearGradient>
<linearGradient id="paint3_linear_94_336" x1="69.719" y1="47.2656" x2="74.9479" y2="47.2656" gradientUnits="userSpaceOnUse">
<stop stop-color="#BDC43F" stop-opacity="0.63"/>
<stop offset="1" stop-color="#339734" stop-opacity="0.98"/>
</linearGradient>
<linearGradient id="paint4_linear_94_336" x1="76.4818" y1="47.2104" x2="80.6948" y2="47.2104" gradientUnits="userSpaceOnUse">
<stop stop-color="#BDC43F" stop-opacity="0.63"/>
<stop offset="1" stop-color="#339734" stop-opacity="0.98"/>
</linearGradient>
<linearGradient id="paint5_linear_94_336" x1="81.7598" y1="47.2656" x2="86.9887" y2="47.2656" gradientUnits="userSpaceOnUse">
<stop stop-color="#BDC43F" stop-opacity="0.63"/>
<stop offset="1" stop-color="#339734" stop-opacity="0.98"/>
</linearGradient>
<linearGradient id="paint6_linear_94_336" x1="88.2235" y1="48.2684" x2="93.4433" y2="48.2684" gradientUnits="userSpaceOnUse">
<stop stop-color="#BDC43F" stop-opacity="0.63"/>
<stop offset="1" stop-color="#339734" stop-opacity="0.98"/>
</linearGradient>
<linearGradient id="paint7_linear_94_336" x1="94.6378" y1="47.2655" x2="99.6789" y2="47.2655" gradientUnits="userSpaceOnUse">
<stop stop-color="#BDC43F" stop-opacity="0.63"/>
<stop offset="1" stop-color="#339734" stop-opacity="0.98"/>
</linearGradient>
<linearGradient id="paint8_linear_94_336" x1="105.105" y1="46.9091" x2="105.473" y2="46.9091" gradientUnits="userSpaceOnUse">
<stop stop-color="#BDC43F" stop-opacity="0.63"/>
<stop offset="1" stop-color="#339734" stop-opacity="0.98"/>
</linearGradient>
<linearGradient id="paint9_linear_94_336" x1="149.694" y1="46.9091" x2="150.062" y2="46.9091" gradientUnits="userSpaceOnUse">
<stop stop-color="#BDC43F" stop-opacity="0.63"/>
<stop offset="1" stop-color="#339734" stop-opacity="0.98"/>
</linearGradient>
<linearGradient id="paint10_linear_94_336" x1="62.1192" y1="47.3205" x2="192.261" y2="47.3205" gradientUnits="userSpaceOnUse">
<stop stop-color="#229133"/>
<stop offset="1" stop-color="#BDC43F" stop-opacity="0.63"/>
</linearGradient>
<linearGradient id="paint11_linear_94_336" x1="62.1191" y1="47.3207" x2="192.261" y2="47.3207" gradientUnits="userSpaceOnUse">
<stop stop-color="#229133"/>
<stop offset="1" stop-color="#BDC43F" stop-opacity="0.63"/>
</linearGradient>
<linearGradient id="paint12_linear_94_336" x1="62.1192" y1="47.3206" x2="192.262" y2="47.3206" gradientUnits="userSpaceOnUse">
<stop stop-color="#229133"/>
<stop offset="1" stop-color="#BDC43F" stop-opacity="0.63"/>
</linearGradient>
<linearGradient id="paint13_linear_94_336" x1="62.1191" y1="47.3207" x2="192.261" y2="47.3207" gradientUnits="userSpaceOnUse">
<stop stop-color="#229133"/>
<stop offset="1" stop-color="#BDC43F" stop-opacity="0.63"/>
</linearGradient>
<linearGradient id="paint14_linear_94_336" x1="62.1192" y1="47.3204" x2="192.261" y2="47.3204" gradientUnits="userSpaceOnUse">
<stop stop-color="#229133"/>
<stop offset="1" stop-color="#BDC43F" stop-opacity="0.63"/>
</linearGradient>
<linearGradient id="paint15_linear_94_336" x1="62.1191" y1="47.3206" x2="192.261" y2="47.3206" gradientUnits="userSpaceOnUse">
<stop stop-color="#229133"/>
<stop offset="1" stop-color="#BDC43F" stop-opacity="0.63"/>
</linearGradient>
<linearGradient id="paint16_linear_94_336" x1="62.1192" y1="47.3205" x2="192.261" y2="47.3205" gradientUnits="userSpaceOnUse">
<stop stop-color="#229133"/>
<stop offset="1" stop-color="#BDC43F" stop-opacity="0.63"/>
</linearGradient>
<linearGradient id="paint17_linear_94_336" x1="62.1192" y1="47.3206" x2="192.261" y2="47.3206" gradientUnits="userSpaceOnUse">
<stop stop-color="#229133"/>
<stop offset="1" stop-color="#BDC43F" stop-opacity="0.63"/>
</linearGradient>
<linearGradient id="paint18_linear_94_336" x1="62.1192" y1="47.3206" x2="192.261" y2="47.3206" gradientUnits="userSpaceOnUse">
<stop stop-color="#229133"/>
<stop offset="1" stop-color="#BDC43F" stop-opacity="0.63"/>
</linearGradient>
<linearGradient id="paint19_linear_94_336" x1="62.1197" y1="47.3205" x2="192.262" y2="47.3205" gradientUnits="userSpaceOnUse">
<stop stop-color="#229133"/>
<stop offset="1" stop-color="#BDC43F" stop-opacity="0.63"/>
</linearGradient>
<linearGradient id="paint20_linear_94_336" x1="62.1195" y1="47.3203" x2="192.262" y2="47.3203" gradientUnits="userSpaceOnUse">
<stop stop-color="#229133"/>
<stop offset="1" stop-color="#BDC43F" stop-opacity="0.63"/>
</linearGradient>
<linearGradient id="paint21_linear_94_336" x1="62.1193" y1="47.3206" x2="192.261" y2="47.3206" gradientUnits="userSpaceOnUse">
<stop stop-color="#229133"/>
<stop offset="1" stop-color="#BDC43F" stop-opacity="0.63"/>
</linearGradient>
<linearGradient id="paint22_linear_94_336" x1="62.1191" y1="47.3204" x2="192.262" y2="47.3204" gradientUnits="userSpaceOnUse">
<stop stop-color="#229133"/>
<stop offset="1" stop-color="#BDC43F" stop-opacity="0.63"/>
</linearGradient>
<linearGradient id="paint23_linear_94_336" x1="62.1192" y1="47.3205" x2="192.261" y2="47.3205" gradientUnits="userSpaceOnUse">
<stop stop-color="#229133"/>
<stop offset="1" stop-color="#BDC43F" stop-opacity="0.63"/>
</linearGradient>
<linearGradient id="paint24_linear_94_336" x1="62.1195" y1="47.3205" x2="192.261" y2="47.3205" gradientUnits="userSpaceOnUse">
<stop stop-color="#229133"/>
<stop offset="1" stop-color="#BDC43F" stop-opacity="0.63"/>
</linearGradient>
<linearGradient id="paint25_linear_94_336" x1="62.1192" y1="47.3203" x2="192.262" y2="47.3203" gradientUnits="userSpaceOnUse">
<stop stop-color="#229133"/>
<stop offset="1" stop-color="#BDC43F" stop-opacity="0.63"/>
</linearGradient>
<linearGradient id="paint26_linear_94_336" x1="62.1182" y1="47.3205" x2="192.262" y2="47.3205" gradientUnits="userSpaceOnUse">
<stop stop-color="#229133"/>
<stop offset="1" stop-color="#BDC43F" stop-opacity="0.63"/>
</linearGradient>
<linearGradient id="paint27_linear_94_336" x1="62.1194" y1="47.3204" x2="192.262" y2="47.3204" gradientUnits="userSpaceOnUse">
<stop stop-color="#229133"/>
<stop offset="1" stop-color="#BDC43F" stop-opacity="0.63"/>
</linearGradient>
<linearGradient id="paint28_linear_94_336" x1="62.1191" y1="47.3207" x2="192.262" y2="47.3207" gradientUnits="userSpaceOnUse">
<stop stop-color="#229133"/>
<stop offset="1" stop-color="#BDC43F" stop-opacity="0.63"/>
</linearGradient>
<linearGradient id="paint29_linear_94_336" x1="62.1192" y1="47.3203" x2="192.261" y2="47.3203" gradientUnits="userSpaceOnUse">
<stop stop-color="#229133"/>
<stop offset="1" stop-color="#BDC43F" stop-opacity="0.63"/>
</linearGradient>
<linearGradient id="paint30_linear_94_336" x1="62.1193" y1="47.3206" x2="192.262" y2="47.3206" gradientUnits="userSpaceOnUse">
<stop stop-color="#229133"/>
<stop offset="1" stop-color="#BDC43F" stop-opacity="0.63"/>
</linearGradient>
<linearGradient id="paint31_linear_94_336" x1="62.1187" y1="47.3206" x2="192.262" y2="47.3206" gradientUnits="userSpaceOnUse">
<stop stop-color="#229133"/>
<stop offset="1" stop-color="#BDC43F" stop-opacity="0.63"/>
</linearGradient>
<linearGradient id="paint32_linear_94_336" x1="62.1211" y1="47.3206" x2="192.261" y2="47.3206" gradientUnits="userSpaceOnUse">
<stop stop-color="#229133"/>
<stop offset="1" stop-color="#BDC43F" stop-opacity="0.63"/>
</linearGradient>
<linearGradient id="paint33_linear_94_336" x1="62.1192" y1="47.3205" x2="192.261" y2="47.3205" gradientUnits="userSpaceOnUse">
<stop stop-color="#229133"/>
<stop offset="1" stop-color="#A8BD3D" stop-opacity="0.65"/>
</linearGradient>
<linearGradient id="paint34_linear_94_336" x1="62.1191" y1="47.3207" x2="192.261" y2="47.3207" gradientUnits="userSpaceOnUse">
<stop stop-color="#229133"/>
<stop offset="1" stop-color="#A8BD3D" stop-opacity="0.65"/>
</linearGradient>
<linearGradient id="paint35_linear_94_336" x1="62.1192" y1="47.3206" x2="192.262" y2="47.3206" gradientUnits="userSpaceOnUse">
<stop stop-color="#229133"/>
<stop offset="1" stop-color="#A8BD3D" stop-opacity="0.65"/>
</linearGradient>
<linearGradient id="paint36_linear_94_336" x1="62.1191" y1="47.3207" x2="192.261" y2="47.3207" gradientUnits="userSpaceOnUse">
<stop stop-color="#229133"/>
<stop offset="1" stop-color="#A8BD3D" stop-opacity="0.65"/>
</linearGradient>
<linearGradient id="paint37_linear_94_336" x1="62.1192" y1="47.3204" x2="192.261" y2="47.3204" gradientUnits="userSpaceOnUse">
<stop stop-color="#229133"/>
<stop offset="1" stop-color="#A8BD3D" stop-opacity="0.65"/>
</linearGradient>
<linearGradient id="paint38_linear_94_336" x1="62.1191" y1="47.3206" x2="192.261" y2="47.3206" gradientUnits="userSpaceOnUse">
<stop stop-color="#229133"/>
<stop offset="1" stop-color="#A8BD3D" stop-opacity="0.65"/>
</linearGradient>
<linearGradient id="paint39_linear_94_336" x1="62.1192" y1="47.3205" x2="192.261" y2="47.3205" gradientUnits="userSpaceOnUse">
<stop stop-color="#229133"/>
<stop offset="1" stop-color="#A8BD3D" stop-opacity="0.65"/>
</linearGradient>
<linearGradient id="paint40_linear_94_336" x1="62.1192" y1="47.3206" x2="192.261" y2="47.3206" gradientUnits="userSpaceOnUse">
<stop stop-color="#229133"/>
<stop offset="1" stop-color="#A8BD3D" stop-opacity="0.65"/>
</linearGradient>
<linearGradient id="paint41_linear_94_336" x1="62.1192" y1="47.3206" x2="192.261" y2="47.3206" gradientUnits="userSpaceOnUse">
<stop stop-color="#229133"/>
<stop offset="1" stop-color="#A8BD3D" stop-opacity="0.65"/>
</linearGradient>
<linearGradient id="paint42_linear_94_336" x1="62.1197" y1="47.3205" x2="192.262" y2="47.3205" gradientUnits="userSpaceOnUse">
<stop stop-color="#229133"/>
<stop offset="1" stop-color="#A8BD3D" stop-opacity="0.65"/>
</linearGradient>
<linearGradient id="paint43_linear_94_336" x1="62.1195" y1="47.3203" x2="192.262" y2="47.3203" gradientUnits="userSpaceOnUse">
<stop stop-color="#229133"/>
<stop offset="1" stop-color="#A8BD3D" stop-opacity="0.65"/>
</linearGradient>
<linearGradient id="paint44_linear_94_336" x1="62.1193" y1="47.3206" x2="192.261" y2="47.3206" gradientUnits="userSpaceOnUse">
<stop stop-color="#229133"/>
<stop offset="1" stop-color="#A8BD3D" stop-opacity="0.65"/>
</linearGradient>
<linearGradient id="paint45_linear_94_336" x1="62.1191" y1="47.3204" x2="192.262" y2="47.3204" gradientUnits="userSpaceOnUse">
<stop stop-color="#229133"/>
<stop offset="1" stop-color="#A8BD3D" stop-opacity="0.65"/>
</linearGradient>
<linearGradient id="paint46_linear_94_336" x1="62.1192" y1="47.3205" x2="192.261" y2="47.3205" gradientUnits="userSpaceOnUse">
<stop stop-color="#229133"/>
<stop offset="1" stop-color="#A8BD3D" stop-opacity="0.65"/>
</linearGradient>
<linearGradient id="paint47_linear_94_336" x1="62.1195" y1="47.3205" x2="192.261" y2="47.3205" gradientUnits="userSpaceOnUse">
<stop stop-color="#229133"/>
<stop offset="1" stop-color="#A8BD3D" stop-opacity="0.65"/>
</linearGradient>
<linearGradient id="paint48_linear_94_336" x1="62.1192" y1="47.3203" x2="192.262" y2="47.3203" gradientUnits="userSpaceOnUse">
<stop stop-color="#229133"/>
<stop offset="1" stop-color="#A8BD3D" stop-opacity="0.65"/>
</linearGradient>
<linearGradient id="paint49_linear_94_336" x1="62.1182" y1="47.3205" x2="192.262" y2="47.3205" gradientUnits="userSpaceOnUse">
<stop stop-color="#229133"/>
<stop offset="1" stop-color="#A8BD3D" stop-opacity="0.65"/>
</linearGradient>
<linearGradient id="paint50_linear_94_336" x1="62.1194" y1="47.3204" x2="192.262" y2="47.3204" gradientUnits="userSpaceOnUse">
<stop stop-color="#229133"/>
<stop offset="1" stop-color="#A8BD3D" stop-opacity="0.65"/>
</linearGradient>
<linearGradient id="paint51_linear_94_336" x1="62.1191" y1="47.3207" x2="192.262" y2="47.3207" gradientUnits="userSpaceOnUse">
<stop stop-color="#229133"/>
<stop offset="1" stop-color="#A8BD3D" stop-opacity="0.65"/>
</linearGradient>
<linearGradient id="paint52_linear_94_336" x1="62.1192" y1="47.3203" x2="192.261" y2="47.3203" gradientUnits="userSpaceOnUse">
<stop stop-color="#229133"/>
<stop offset="1" stop-color="#A8BD3D" stop-opacity="0.65"/>
</linearGradient>
<linearGradient id="paint53_linear_94_336" x1="62.1193" y1="47.3206" x2="192.262" y2="47.3206" gradientUnits="userSpaceOnUse">
<stop stop-color="#229133"/>
<stop offset="1" stop-color="#A8BD3D" stop-opacity="0.65"/>
</linearGradient>
<linearGradient id="paint54_linear_94_336" x1="62.1187" y1="47.3206" x2="192.262" y2="47.3206" gradientUnits="userSpaceOnUse">
<stop stop-color="#229133"/>
<stop offset="1" stop-color="#A8BD3D" stop-opacity="0.65"/>
</linearGradient>
<linearGradient id="paint55_linear_94_336" x1="62.1211" y1="47.3206" x2="192.261" y2="47.3206" gradientUnits="userSpaceOnUse">
<stop stop-color="#229133"/>
<stop offset="1" stop-color="#A8BD3D" stop-opacity="0.65"/>
</linearGradient>
<clipPath id="clip0_94_336">
<rect width="251.964" height="49.7576" fill="white" transform="translate(0 2.17969)"/>
</clipPath>
<clipPath id="clip1_94_336">
<rect width="251.964" height="49.7576" fill="white" transform="translate(0 2.17969)"/>
</clipPath>
</defs>
</svg>
