<svg width="32" height="32" viewBox="0 0 32 32" fill="none" xmlns="http://www.w3.org/2000/svg">
<path d="M6.58813 23.5294V21.3781H8.94108V13.8487C8.94108 12.3607 9.43127 11.0384 10.4117 9.88177C11.3921 8.72511 12.6666 7.96787 14.2352 7.61004V6.8571C14.2352 6.40892 14.407 6.02779 14.7505 5.71371C15.094 5.39962 15.5105 5.24294 15.9999 5.24365C16.4901 5.24365 16.907 5.4007 17.2505 5.71478C17.594 6.02886 17.7654 6.40964 17.7646 6.8571V7.61004C19.3332 7.96858 20.6077 8.72619 21.5881 9.88285C22.5685 11.0395 23.0587 12.3615 23.0587 13.8487V21.3781H25.4117V23.5294H6.58813ZM15.9999 26.7563C15.3528 26.7563 14.7987 26.5454 14.3375 26.1238C13.8764 25.7021 13.6462 25.1959 13.647 24.605H18.3528C18.3528 25.1966 18.1223 25.7032 17.6611 26.1249C17.1999 26.5465 16.6462 26.757 15.9999 26.7563ZM11.294 21.3781H20.7058V13.8487C20.7058 12.6655 20.245 11.6526 19.3234 10.81C18.4019 9.96746 17.294 9.54618 15.9999 9.54618C14.7058 9.54618 13.5979 9.96746 12.6764 10.81C11.7548 11.6526 11.294 12.6655 11.294 13.8487V21.3781Z" fill="#02963A"/>
<circle cx="24.0001" cy="8.0001" r="6.4" fill="#F75656"/>
</svg>
