<svg width="20" height="20" viewBox="0 0 20 20" fill="none" xmlns="http://www.w3.org/2000/svg">
<path d="M11.8889 6.83333C11.6127 6.83333 11.3889 6.60948 11.3889 6.33333V3C11.3889 2.72386 11.6127 2.5 11.8889 2.5H17C17.2761 2.5 17.5 2.72386 17.5 3V6.33333C17.5 6.60948 17.2761 6.83333 17 6.83333H11.8889ZM3 10.3889C2.72386 10.3889 2.5 10.165 2.5 9.88889V3C2.5 2.72386 2.72386 2.5 3 2.5H8.11111C8.38725 2.5 8.61111 2.72386 8.61111 3V9.88889C8.61111 10.165 8.38725 10.3889 8.11111 10.3889H3ZM11.8889 17.5C11.6127 17.5 11.3889 17.2761 11.3889 17V10.1111C11.3889 9.83497 11.6127 9.61111 11.8889 9.61111H17C17.2761 9.61111 17.5 9.83497 17.5 10.1111V17C17.5 17.2761 17.2761 17.5 17 17.5H11.8889ZM3 17.5C2.72386 17.5 2.5 17.2761 2.5 17V13.6667C2.5 13.3905 2.72386 13.1667 3 13.1667H8.11111C8.38725 13.1667 8.61111 13.3905 8.61111 13.6667V17C8.61111 17.2761 8.38725 17.5 8.11111 17.5H3Z" stroke="#232323"/>
</svg>
