<svg width="20" height="20" viewBox="0 0 20 20" fill="none" xmlns="http://www.w3.org/2000/svg">
<g clip-path="url(#clip0_148_2197)">
<path d="M9.94831 8.75455L9.73878 9.03743C9.73864 9.03762 9.73774 9.03888 9.73592 9.04162L9.72564 9.05763C9.72436 9.05966 9.72273 9.06227 9.72082 9.06531C9.71229 9.07895 9.6982 9.10146 9.68484 9.1215C9.65309 9.1691 9.58507 9.26692 9.472 9.34467C9.38355 9.40595 9.29122 9.45673 9.22379 9.4938C9.21669 9.49771 9.20987 9.50146 9.20335 9.50505C9.12593 9.5478 9.07676 9.57659 9.03538 9.60771L9.03521 9.60783C8.85702 9.74169 8.6382 9.86598 8.4596 9.96743C8.39509 10.0041 8.33584 10.0377 8.28563 10.0678L8.27762 10.0747C8.27199 10.0796 8.2621 10.0883 8.25212 10.0969C8.23261 10.1135 8.19818 10.1421 8.15467 10.1699C8.11116 10.1976 8.04899 10.2308 7.9699 10.2518C7.9656 10.2541 7.95169 10.2618 7.92272 10.2818C7.91867 10.2846 7.91157 10.2896 7.90274 10.2959C7.88046 10.3115 7.84714 10.335 7.82367 10.3507C7.7821 10.3785 7.72742 10.4128 7.66233 10.4436C7.59522 10.4754 7.54838 10.5067 7.47973 10.5524C7.43479 10.5824 7.38049 10.6186 7.30503 10.6653L9.94831 8.75455ZM9.94831 8.75455L9.75246 8.46186M9.94831 8.75455L9.75246 8.46186M9.75246 8.46186C9.67746 8.34978 9.58918 8.24696 9.52465 8.17181C9.51319 8.15846 9.50248 8.14599 9.49272 8.13449C9.41859 8.0471 9.37577 7.99013 9.34691 7.93445L9.34684 7.93432M9.75246 8.46186L9.34684 7.93432M9.34684 7.93432C9.27335 7.79266 9.17386 7.68624 9.10491 7.6168M9.34684 7.93432L9.10491 7.6168M10.498 5.73496L10.4979 5.73511C10.3523 5.91682 10.1795 6.03648 10.0535 6.11995C10.027 6.1375 10.0029 6.15334 9.98068 6.16789C9.883 6.23197 9.82344 6.27104 9.76817 6.32207L9.42898 5.95471L9.76816 6.32207C9.65088 6.43036 9.49669 6.54542 9.37656 6.63507C9.32601 6.67279 9.2815 6.70601 9.24829 6.73233L9.24054 6.73849C9.10066 6.84948 8.97352 6.95037 8.85368 7.05646C8.85365 7.05648 8.85362 7.0565 8.8536 7.05653L10.498 5.73496ZM10.498 5.73496C10.498 5.73499 10.498 5.73498 10.498 5.73493M10.498 5.73496L10.498 5.73493M11.6777 5.37474L11.6776 5.37468C11.5847 5.25604 11.5279 5.20353 11.4873 5.17903C11.4713 5.16935 11.4605 5.16582 11.4515 5.16408C11.4424 5.16232 11.4231 5.16001 11.3878 5.16583C11.3501 5.17205 11.3147 5.17506 11.2875 5.17666C11.2719 5.18926 11.2559 5.20233 11.2392 5.21601L11.2356 5.21894C11.185 5.26023 11.1275 5.3071 11.0673 5.35296C11.0672 5.35305 11.0671 5.35314 11.0669 5.35323L10.7641 4.9554L11.6777 5.37474ZM11.6777 5.37474C11.7242 5.43412 11.755 5.47958 11.7928 5.53545C11.8228 5.5798 11.8572 5.63069 11.9075 5.7003C11.9797 5.80029 12.0707 5.91615 12.1899 6.02405C12.2804 6.20116 12.3982 6.33643 12.4852 6.43321C12.5055 6.4558 12.5241 6.47632 12.5411 6.49516C12.6298 6.59306 12.6773 6.64561 12.7138 6.7085L12.7138 6.70858M11.6777 5.37474L12.7138 6.70858M12.7138 6.70858C12.819 6.8899 12.9506 7.04936 13.0522 7.17251C13.064 7.18679 13.0754 7.20058 13.0863 7.21386C13.2019 7.35489 13.2785 7.45641 13.3294 7.5627L13.3873 7.68397M12.7138 6.70858L13.3873 7.68397M13.3873 7.68397L13.4983 7.75981M13.3873 7.68397L13.4983 7.75981M13.4983 7.75981C13.5262 7.77886 13.5588 7.81364 13.6335 7.92688C13.64 7.93679 13.6471 7.9478 13.6548 7.95973C13.7182 8.05752 13.822 8.21762 13.9662 8.34868C14.0607 8.43461 14.141 8.56321 14.2535 8.75998C14.254 8.76785 14.2545 8.77681 14.2552 8.78842L14.2554 8.79193C14.2561 8.80512 14.257 8.82209 14.2582 8.83927C14.2601 8.86597 14.263 8.90105 14.2687 8.94034C14.2564 8.95465 14.2398 8.97193 14.2157 8.99514C14.1222 9.08529 14.0292 9.15334 13.9111 9.23984C13.8506 9.28413 13.7835 9.33325 13.7063 9.39266L13.7057 9.39315M13.4983 7.75981L13.7057 9.39315M13.7057 9.39315C13.6984 9.39878 13.6864 9.40774 13.6713 9.41895C13.625 9.45334 13.5502 9.50893 13.4968 9.55475L13.4963 9.5552C13.4274 9.61459 13.3554 9.66648 13.2636 9.73268C13.243 9.74755 13.2214 9.76314 13.1986 9.7797C13.0872 9.86056 12.9528 9.96108 12.8264 10.0879M13.7057 9.39315L14.5627 9.35516C14.4445 9.46906 14.3109 9.5671 14.1773 9.66513C14.1216 9.70599 14.0659 9.74685 14.0114 9.78885C13.9897 9.80561 13.9676 9.82195 13.9456 9.83828C13.9038 9.86927 13.862 9.90024 13.8227 9.93399C13.7358 10.0088 13.6431 10.0756 13.5502 10.1426C13.4187 10.2373 13.2869 10.3322 13.1713 10.4502M13.1713 10.4502L12.8144 10.1M13.1713 10.4502C13.1286 10.4937 13.07 10.5256 13.0093 10.5585C12.9576 10.5866 12.9045 10.6154 12.8585 10.653L12.8144 10.1M13.1713 10.4502L12.8141 10.1003C12.8142 10.1002 12.8143 10.1001 12.8144 10.1M12.8144 10.1C12.825 10.0892 12.8326 10.0839 12.8327 10.0838C12.8327 10.0838 12.832 10.0843 12.8304 10.0853C12.8292 10.0861 12.8279 10.0869 12.8264 10.0879M12.8264 10.0879C12.8187 10.0926 12.8065 10.0996 12.7835 10.1121C12.7797 10.1142 12.7752 10.1166 12.7702 10.1193C12.7229 10.1448 12.6277 10.196 12.5424 10.2655L12.8264 10.0879ZM11.1893 10.3829L11.1894 10.383C11.2099 10.41 11.2319 10.4342 11.27 10.4761C11.2783 10.4853 11.2875 10.4954 11.2975 10.5065C11.3452 10.5593 11.4148 10.6375 11.4756 10.7326C11.5279 10.8145 11.5677 10.8454 11.588 10.8569C11.6012 10.8644 11.6247 10.8754 11.6834 10.8687L11.1893 10.3829ZM11.1893 10.3829C11.1483 10.3291 11.1089 10.2717 11.0607 10.2015L11.0603 10.2009C11.0147 10.1344 10.9607 10.0556 10.901 9.97807L10.9007 9.97764M11.1893 10.3829L10.9007 9.97764M10.9007 9.97764C10.8027 9.85056 10.6958 9.72938 10.5821 9.61634M10.9007 9.97764L10.5821 9.61634M8.79684 10.4523L8.79702 10.4521C8.8295 10.4229 8.86363 10.3879 8.90941 10.3398C8.91452 10.3344 8.91984 10.3288 8.92534 10.323C8.9649 10.2814 9.01402 10.2296 9.06539 10.1803C9.1588 10.0907 9.28269 9.98592 9.44508 9.90733C9.45427 9.89745 9.4637 9.88728 9.47334 9.87688C9.55727 9.78638 9.65763 9.67816 9.76155 9.58199L8.79684 10.4523ZM8.79684 10.4523C8.67659 10.5606 8.56235 10.6752 8.45782 10.7808C8.44714 10.7916 8.43657 10.8023 8.42611 10.8129C8.33102 10.9091 8.2441 10.997 8.15581 11.0797L8.15575 11.0798M8.79684 10.4523L8.15575 11.0798M8.15575 11.0798C8.05741 11.1719 7.96929 11.2583 7.88623 11.3397C7.69405 11.5281 7.52895 11.69 7.32708 11.8355L7.32689 11.8356M8.15575 11.0798L7.32689 11.8356M7.32689 11.8356C7.19937 11.9277 7.09075 12.0305 7.00119 12.1192C6.96711 12.153 6.93723 12.1832 6.90949 12.2112C6.85675 12.2644 6.81169 12.3099 6.75997 12.3577L7.32689 11.8356ZM5.34485 14.3374C5.44784 14.2418 5.55176 14.1472 5.65567 14.0526C5.7535 13.9636 5.85132 13.8745 5.94838 13.7846C6.04679 13.6935 6.14437 13.6014 6.24195 13.5094C6.35038 13.4071 6.45881 13.3048 6.56838 13.2038L6.22946 12.8362L5.34485 14.3374ZM5.34485 14.3374C5.25008 14.4255 5.15642 14.5146 5.06276 14.6038M5.34485 14.3374L5.06276 14.6038M1.9516 16.4686C2.03271 16.4286 2.10565 16.3943 2.17265 16.3628C2.33631 16.2857 2.46453 16.2254 2.58971 16.14L2.58974 16.14C2.7991 15.9973 2.99209 15.8199 3.21634 15.6138L3.23293 15.5986C3.47493 15.3762 3.72189 15.1512 3.97637 14.9316L1.02848 16.4437M1.9516 16.4686C1.95163 16.4686 1.95166 16.4686 1.95168 16.4686L2.17273 16.9171L1.9516 16.4686ZM1.9516 16.4686C1.84881 16.5193 1.73815 16.5402 1.59115 16.5438C1.51508 16.5457 1.43532 16.543 1.34048 16.5389C1.32976 16.5384 1.31879 16.5379 1.30758 16.5374C1.25173 16.5349 1.19019 16.5322 1.12666 16.5306M1.12666 16.5306C1.11648 16.5209 1.10323 16.5083 1.08934 16.4956C1.07284 16.4806 1.05221 16.4624 1.02848 16.4437M1.12666 16.5306C1.09592 16.5298 1.06471 16.5293 1.03346 16.5293C1.07021 16.5294 1.10493 16.5377 1.13303 16.5498C1.15621 16.5597 1.1688 16.5696 1.16881 16.5696C1.16881 16.5696 1.16871 16.5695 1.16851 16.5694C1.16751 16.5686 1.16431 16.5659 1.1578 16.56C1.15086 16.5536 1.1434 16.5466 1.13143 16.5351L1.13014 16.5339C1.12903 16.5328 1.12786 16.5317 1.12666 16.5306ZM1.02848 16.4437L0.718087 16.8356L1.02818 16.4434C1.02825 16.4435 1.02833 16.4435 1.0284 16.4436C0.830057 16.2865 0.729372 16.194 0.675262 16.0845L1.02848 16.4437ZM0.53039 15.5411L0.530187 15.5414C0.495417 15.6048 0.494003 15.6458 0.508871 15.707C0.52904 15.7901 0.569164 15.8709 0.640338 16.0141L0.53039 15.5411ZM0.53039 15.5411C0.589877 15.4324 0.626569 15.3143 0.646221 15.2511C0.648749 15.243 0.650996 15.2358 0.652972 15.2296C0.676386 15.1564 0.686003 15.1392 0.690942 15.1319L0.690986 15.1319M0.53039 15.5411L0.690986 15.1319M0.690986 15.1319C0.804901 14.9642 0.909524 14.8145 1.02171 14.6799M0.690986 15.1319L1.02171 14.6799M9.10491 7.6168C9.06701 7.57862 9.04032 7.55298 9.01866 7.53216M9.10491 7.6168L9.01866 7.53216M9.01866 7.53216C8.98942 7.50407 8.96934 7.48476 8.9432 7.45534M9.01866 7.53216L8.9432 7.45534M8.9432 7.45534C8.85516 7.35611 8.81873 7.24108 8.84921 7.06043L8.9432 7.45534ZM10.498 5.73493C10.4989 5.73396 10.5135 5.71807 10.5715 5.68098M10.498 5.73493L10.5715 5.68098M10.5715 5.68098C10.5941 5.66652 10.616 5.65329 10.6435 5.63665M10.5715 5.68098L10.6435 5.63665M10.6435 5.63665C10.6531 5.63089 10.6633 5.62473 10.6744 5.61796M10.6435 5.63665L10.6744 5.61796M10.6744 5.61796C10.7137 5.59412 10.7623 5.56417 10.8113 5.52996L10.6744 5.61796ZM10.5821 9.61634C10.509 9.54354 10.4306 9.50711 10.3893 9.49032C10.3405 9.47047 10.2919 9.4577 10.2476 9.45009C10.2049 9.44275 10.1484 9.43715 10.085 9.44238C10.0457 9.44563 9.89396 9.45948 9.76162 9.58194L10.5821 9.61634ZM1.02171 14.6799L0.637689 14.3598L1.02171 14.6799ZM6.113 11.3919C6.02448 11.4411 5.95947 11.4797 5.90609 11.5193L6.113 11.3919ZM6.113 11.3919C6.12812 11.3835 6.14438 11.3745 6.16149 11.3651M6.113 11.3919L6.16149 11.3651M6.16149 11.3651C6.23493 11.3247 6.32418 11.2756 6.40756 11.2232L6.16149 11.3651ZM5.06276 14.6038C4.98514 14.6777 4.90751 14.7516 4.82927 14.8249L5.06276 14.6038ZM7.96406 10.2533L7.96409 10.2533L7.96406 10.2533ZM11.2157 5.17954C11.2126 5.18009 11.2107 5.18036 11.2107 5.18035L11.2157 5.17954ZM11.7222 10.8645L11.6835 10.8687L12.5423 10.2656C12.2896 10.4717 12.0292 10.6699 11.7628 10.86C11.7598 10.8603 11.7565 10.8607 11.7528 10.8612L11.7222 10.8645ZM9.58886 9.84902C9.58991 9.84867 9.59096 9.84832 9.59202 9.84797L9.59141 9.84817L9.58886 9.84902ZM1.9008 14.0227C1.90372 14.0208 1.90753 14.0183 1.9121 14.0153C1.95074 13.9901 2.04439 13.9292 2.12729 13.8433C2.13341 13.8408 2.13691 13.8393 2.14113 13.8376C2.14693 13.8352 2.15407 13.8323 2.17115 13.8251L2.17459 13.8236C2.22837 13.8009 2.34488 13.7517 2.45318 13.6471C2.56431 13.5959 2.64814 13.533 2.70107 13.4926C2.72293 13.4758 2.73828 13.4638 2.75088 13.454C2.76863 13.4401 2.78089 13.4305 2.79816 13.418C2.81274 13.4076 2.81989 13.4034 2.82147 13.4025C3.10044 13.281 3.34442 13.1277 3.56923 12.949C3.8507 12.8304 4.09365 12.6702 4.31301 12.4923C4.31673 12.4904 4.33028 12.4831 4.36218 12.4684C4.36594 12.4667 4.37019 12.4647 4.37489 12.4626C4.42099 12.4415 4.51007 12.4008 4.59368 12.3438C4.68509 12.2814 4.78334 12.2261 4.90434 12.1579C4.91347 12.1528 4.92272 12.1476 4.93212 12.1423C5.05815 12.0712 5.2084 11.9856 5.35203 11.8802L5.35219 11.8801C5.42065 11.8298 5.49535 11.7841 5.5925 11.7249L5.59608 11.7227C5.68642 11.6676 5.79761 11.5999 5.906 11.5194L1.9008 14.0227ZM6.40777 11.2231C6.46216 11.1889 6.51627 11.1549 6.57022 11.121C6.69787 11.0408 6.82459 10.9612 6.95197 10.8819C7.01889 10.8402 7.07645 10.8051 7.13594 10.7689C7.18823 10.737 7.24201 10.7043 7.30497 10.6653L6.40777 11.2231Z" stroke="#232323"/>
<path d="M10.9106 15.529C10.9096 15.5326 10.9085 15.5366 10.9075 15.5407C10.9026 15.5593 10.8971 15.5806 10.8857 15.5855M10.9106 15.529L10.7802 15.8663C10.7823 15.8444 10.7822 15.8217 10.7821 15.799C10.7818 15.7155 10.7815 15.6313 10.8857 15.5855M10.9106 15.529C10.9726 15.3124 11.1325 15.2134 11.3391 15.1703L10.9106 15.529ZM10.8857 15.5855L11.0189 15.8886L11.019 15.8887L11.0869 16.0433M10.8857 15.5855L11.0183 15.8885L11.0183 15.8886L11.0861 16.0436C11.0864 16.0435 11.0867 16.0434 11.0869 16.0433M11.0869 16.0433C11.1691 16.0071 11.2272 15.9563 11.2664 15.9119C11.2665 15.9119 11.2666 15.9118 11.2666 15.9117C11.2711 15.9066 11.2754 15.9016 11.2794 15.8967M11.0869 16.0433C11.1226 16.0276 11.1749 15.9943 11.2187 15.9341C11.2249 15.9256 11.2305 15.9173 11.2355 15.909C11.2355 15.909 11.2355 15.9089 11.2356 15.9088C11.2649 15.8605 11.2757 15.8172 11.2796 15.7941C11.2818 15.7815 11.2822 15.7722 11.2823 15.7722C11.2823 15.7722 11.2821 15.7766 11.2821 15.7872C11.2821 15.7885 11.2821 15.7904 11.2821 15.7928C11.2822 15.8099 11.2826 15.8527 11.2794 15.8967M11.2794 15.8967C11.2962 15.8762 11.3087 15.8577 11.3176 15.8436C11.3493 15.7934 11.3661 15.748 11.3736 15.7263C11.3817 15.7031 11.3871 15.6828 11.3894 15.6742M11.2794 15.8967C11.279 15.9021 11.2786 15.9075 11.2781 15.9128L11.278 15.913C11.2729 15.9672 11.2704 16.0163 11.2673 16.0757C11.2657 16.1056 11.264 16.1382 11.2618 16.1753L11.2402 16.5341L10.8932 16.628C10.8277 16.6457 10.7657 16.6621 10.7061 16.6779C10.5706 16.7139 10.4472 16.7466 10.3213 16.7841M11.3894 15.6742L10.1782 16.305M11.3894 15.6742C11.3969 15.6713 11.4073 15.6679 11.4213 15.6643C11.4236 15.6641 11.4259 15.6639 11.428 15.6636C11.4465 15.6616 11.488 15.6565 11.537 15.6413C11.5798 15.6281 11.6418 15.6032 11.7049 15.5547C11.7194 15.5546 11.7397 15.5551 11.7713 15.5567C11.7769 15.557 11.7832 15.5573 11.7902 15.5577C11.8275 15.5597 11.8824 15.5627 11.9352 15.5626M11.3894 15.6742L10.0472 16.9537C10.0296 16.9717 10.0155 16.986 10.0026 16.9989C9.98478 17.0169 9.96944 17.0324 9.9507 17.052C9.92303 17.0809 9.90364 17.1029 9.88931 17.1213C9.87889 17.1347 9.87327 17.1436 9.87052 17.1484C9.85225 17.2759 9.84005 17.4005 9.8368 17.5261C10.6603 17.5263 11.4838 17.5264 12.3073 17.5266C14.1042 17.5269 15.9012 17.5273 17.6981 17.5274M10.3213 16.7841C10.3215 16.784 10.3216 16.784 10.3218 16.7839L10.1782 16.305M10.3213 16.7841C10.3211 16.7841 10.321 16.7842 10.3208 16.7842L10.1782 16.305M10.3213 16.7841C10.2685 16.7999 10.234 16.8158 10.2142 16.8281M10.1782 16.305C10.0987 16.3288 10.0188 16.3606 9.94879 16.4044M10.2142 16.8281C10.2144 16.828 10.2146 16.8279 10.2148 16.8278L9.94879 16.4044M10.2142 16.8281C10.1346 16.8782 10.082 16.9181 10.0473 16.9536L9.94879 16.4044M10.2142 16.8281C10.2141 16.8282 10.214 16.8283 10.2139 16.8283L9.94879 16.4044M17.6981 17.5274L17.6981 18.0274M17.6981 17.5274L17.6981 18.0274M17.6981 17.5274C18.299 17.5274 18.9 17.5269 19.5008 17.5257C19.501 17.5162 19.501 17.5083 19.5008 17.5014C19.4215 17.4002 19.3991 17.2962 19.3915 17.2526C19.3841 17.2105 19.3819 17.1714 19.3822 17.1376C19.3705 17.1207 19.3598 17.1069 19.3419 17.0839C19.3333 17.0729 19.323 17.0597 19.3102 17.0429C19.2872 17.013 19.2564 16.9722 19.2255 16.9237C19.2223 16.922 19.2187 16.92 19.2145 16.9177C19.1999 16.9098 19.1794 16.8985 19.1574 16.8853C19.1228 16.8645 19.0744 16.8331 19.0245 16.7882C19.022 16.7877 19.0195 16.7871 19.0166 16.7865C18.8811 16.7569 18.7428 16.7228 18.6189 16.6923C18.5722 16.6808 18.5276 16.6698 18.4859 16.6597L18.1984 16.5902L18.1209 16.3048C18.1063 16.251 18.0923 16.1991 18.0787 16.1487C18.0455 16.0257 18.0146 15.9114 17.9829 15.7988C17.9733 15.7899 17.9639 15.7812 17.9551 15.7731C17.9429 15.7617 17.9318 15.7514 17.923 15.7433C17.889 15.7121 17.8631 15.6895 17.8394 15.671C17.7958 15.6371 17.7672 15.6235 17.739 15.6161C17.6817 15.6011 17.6396 15.5894 17.6073 15.5804C17.534 15.56 17.511 15.5537 17.4758 15.5537L17.4756 15.5537C17.3074 15.5539 17.1391 15.5541 16.9709 15.5544C15.2921 15.5565 13.6136 15.5587 11.9352 15.5626M17.6981 18.0274C15.9011 18.0273 14.104 18.0269 12.307 18.0266C11.4056 18.0264 10.5042 18.0262 9.60284 18.0261L19.711 18.0252M17.6981 18.0274C18.369 18.0274 19.0401 18.0267 19.711 18.0252M11.9352 15.5626L11.934 15.0626M11.9352 15.5626L11.934 15.0626M11.934 15.0626C11.8968 15.0627 11.8591 15.0607 11.8214 15.0587C11.6751 15.0509 11.5277 15.043 11.4019 15.1568L18.6034 16.1737C18.5893 16.1219 18.5756 16.0712 18.5622 16.0215C18.5186 15.8601 18.4777 15.7085 18.434 15.5576C18.4253 15.5279 18.3982 15.5006 18.3738 15.4787C18.3494 15.4569 18.3255 15.4347 18.3017 15.4126C18.1764 15.296 18.0538 15.1819 17.8662 15.1326C17.84 15.1257 17.8141 15.1184 17.7883 15.1111C17.6854 15.0821 17.5838 15.0535 17.475 15.0537C17.3061 15.0539 17.1373 15.0541 16.9685 15.0544C15.2903 15.0565 13.6122 15.0587 11.934 15.0626ZM19.711 18.0252C19.9413 18.0248 20.0007 17.9711 19.9946 17.7497C19.9935 17.7065 19.9955 17.6626 19.9976 17.6187C20.0046 17.4707 20.0116 17.3218 19.896 17.1949C19.8835 17.1812 19.8811 17.1533 19.8826 17.1325C19.8939 16.9791 19.8114 16.873 19.7288 16.7669C19.6915 16.7189 19.6541 16.6708 19.6255 16.6184L19.711 18.0252ZM19.2614 16.9439C19.2613 16.9439 19.2602 16.9433 19.2582 16.9419C19.2605 16.9432 19.2615 16.9439 19.2614 16.9439Z" stroke="#232323"/>
<path d="M16.535 10.5705C16.5303 10.5306 16.5284 10.4943 16.5272 10.4697L16.5263 10.4501L16.5255 10.4336L16.5254 10.4311C16.496 10.3822 16.4618 10.3364 16.4148 10.2733C16.3874 10.2367 16.3558 10.1942 16.3182 10.142L16.7241 9.85002L16.3188 10.1429C16.3128 10.1346 16.3052 10.1255 16.2782 10.0937L16.2775 10.0929C16.2585 10.0704 16.2269 10.0333 16.1953 9.98868C16.1886 9.98525 16.1781 9.98022 16.1625 9.97364C16.1461 9.96671 16.1286 9.95982 16.1041 9.95016L16.1036 9.94993C16.0818 9.94136 16.054 9.93037 16.0252 9.9182C16.0138 9.92139 16.0034 9.92436 15.9927 9.92756C15.9704 9.93431 15.9584 9.93895 15.9534 9.94097C15.9217 9.96435 15.8981 9.98453 15.8654 10.0125C15.841 10.0334 15.8115 10.0585 15.7698 10.0926C15.7068 10.1442 15.6242 10.2078 15.5223 10.2639C15.5223 10.2639 15.5223 10.2639 15.5223 10.2639L16.535 10.5705ZM16.535 10.5705C16.5371 10.5944 16.5343 10.6049 16.5337 10.6071C16.533 10.6096 16.5313 10.6151 16.5234 10.6261C16.5019 10.6558 16.4541 10.7005 16.3439 10.7722L16.3438 10.7723C16.3286 10.7821 16.3077 10.7952 16.2832 10.8104C16.2098 10.8561 16.1041 10.9219 16.0212 10.9849L16.0212 10.9849C15.9551 11.0351 15.8993 11.0884 15.8625 11.1238L15.8544 11.1316C15.8169 11.1676 15.7977 11.1861 15.7778 11.2024C15.7141 11.2549 15.6434 11.305 15.556 11.3664L15.5557 11.3666C15.5209 11.3911 15.4847 11.4162 15.4474 11.4421C15.2074 11.6086 14.9209 11.8075 14.6746 12.0622L14.6633 12.0673C14.652 12.0723 14.6369 12.0792 14.6206 12.087C14.589 12.1024 14.5426 12.1264 14.4937 12.161L14.4934 12.1612C14.2701 12.3198 14.0506 12.4825 13.8361 12.6416L13.8155 12.6569L13.8151 12.6571C13.7438 12.7101 13.6698 12.7699 13.598 12.8377L13.9412 13.2013M16.535 10.5705L16.6164 11.1914C16.5852 11.2117 16.5535 11.2314 16.5219 11.2511C16.4543 11.2931 16.3867 11.3352 16.3235 11.3831C16.2789 11.417 16.2382 11.4561 16.1975 11.4953C16.1644 11.5272 16.1312 11.5591 16.0959 11.5883C16.015 11.6548 15.929 11.7154 15.8433 11.7756C15.8051 11.8025 15.7668 11.8291 15.7286 11.8557C15.4725 12.0339 15.2167 12.2119 15.0019 12.4437C14.9703 12.4778 14.9247 12.4982 14.8785 12.5187C14.8452 12.5336 14.8116 12.5486 14.7829 12.5689C14.5638 12.7244 14.3481 12.8844 14.1324 13.0443L14.1133 13.0585C14.0535 13.1029 13.9954 13.1502 13.9412 13.2013M13.9412 13.2013C13.8491 13.288 13.7464 13.3608 13.6434 13.4338C13.5198 13.5213 13.3958 13.6092 13.2892 13.7218M13.9412 13.2013L13.5986 12.8372C13.5329 12.899 13.4583 12.952 13.3479 13.0303C13.3397 13.0361 13.3314 13.0421 13.3228 13.0482C13.2098 13.1285 13.0609 13.2357 12.9261 13.3781L13.2892 13.7218M13.2892 13.7218C13.1891 13.8275 13.0477 13.897 12.9102 13.9645C12.8836 13.9776 12.8572 13.9905 12.8312 14.0037C12.7065 14.0668 12.5781 14.0234 12.4564 13.9822C12.4416 13.9772 12.4269 13.9723 12.4123 13.9675L12.9261 13.3781M13.2892 13.7218L12.9261 13.3781M12.9261 13.3781C12.9159 13.3888 12.8907 13.41 12.8312 13.4433C12.7886 13.4672 12.7519 13.4852 12.7052 13.5081C12.6938 13.5137 12.6817 13.5195 12.6689 13.5259C12.6679 13.5256 12.6669 13.5253 12.6658 13.5249C12.6535 13.521 12.6402 13.5166 12.6233 13.5109L12.617 13.5087C12.6028 13.5039 12.5855 13.4981 12.5683 13.4925L12.9261 13.3781ZM14.0419 11.4439L13.9368 11.4971C13.8233 11.5545 13.7145 11.6372 13.5754 11.7531C13.5554 11.7698 13.5342 11.7876 13.5121 11.8063C13.3945 11.9054 13.2495 12.0277 13.0932 12.1305L14.0419 11.4439ZM14.0419 11.4439L14.1123 11.3493M14.0419 11.4439L14.1123 11.3493M14.1123 11.3493C14.1393 11.3129 14.1837 11.2752 14.2981 11.199M14.1123 11.3493L14.2981 11.199M12.9336 12.2604C12.8717 12.3146 12.7827 12.3926 12.6801 12.46L12.9336 12.2604ZM12.9336 12.2604C12.9362 12.2582 12.9387 12.256 12.9412 12.2538M12.9336 12.2604L12.9412 12.2538M12.9412 12.2538C13.0122 12.1917 13.0532 12.1568 13.0929 12.1306L12.9412 12.2538ZM14.2981 11.199C14.308 11.1925 14.3187 11.1854 14.3302 11.1779M14.2981 11.199L14.3302 11.1779M14.3302 11.1779C14.4288 11.113 14.5839 11.0112 14.7132 10.8729L14.3302 11.1779ZM16.1816 9.9689L16.1817 9.96904L16.1816 9.9689ZM12.1535 12.9006C12.2425 12.78 12.2944 12.7284 12.3428 12.6885C12.3955 12.6451 12.4488 12.6105 12.5518 12.5436C12.5878 12.5203 12.6298 12.493 12.68 12.46L12.1535 12.9006ZM14.7133 10.8728C14.7296 10.8554 14.7595 10.8309 14.8279 10.7865C14.8393 10.7792 14.8535 10.7702 14.8696 10.7599C14.9276 10.7232 15.0111 10.6704 15.0814 10.6174L14.7133 10.8728Z" stroke="#232323"/>
<path d="M6.56933 5.40994L6.56949 5.43404C6.57021 5.53835 6.57839 5.58415 6.58617 5.61131C6.59292 5.63489 6.60604 5.66823 6.65118 5.73572C6.71953 5.83752 6.79363 5.93439 6.87693 6.04172C6.88978 6.0449 6.90172 6.04792 6.91251 6.05065L6.91807 6.05206C6.97113 6.06548 7.00088 6.07273 7.02724 6.07718C7.03411 6.07834 7.03946 6.07907 7.04348 6.07954C7.12756 6.03813 7.18389 6.00768 7.22857 5.97577L7.51919 6.38263M6.56933 5.40994L10.8478 3.32554C10.8527 3.29609 10.8584 3.26864 10.8629 3.24748M6.56933 5.40994C6.56969 5.40944 6.57008 5.40893 6.57047 5.4084C6.58345 5.3912 6.60514 5.36713 6.64015 5.335C6.67506 5.30296 6.71657 5.26887 6.76723 5.22908C6.83006 5.17982 6.88689 5.14148 6.95704 5.09416C6.99772 5.06673 7.04287 5.03627 7.09626 4.99891C7.22029 4.91213 7.36777 4.80084 7.50105 4.65028C7.50441 4.6481 7.50904 4.64518 7.51515 4.64151C7.52657 4.63465 7.5349 4.62986 7.54619 4.62338C7.55456 4.61857 7.56457 4.61283 7.57867 4.60461C7.60514 4.58918 7.64122 4.56767 7.67891 4.54157L7.67893 4.54155C7.71994 4.51314 7.77038 4.48034 7.82656 4.44381C7.99645 4.33334 8.21876 4.18878 8.39122 4.02841C8.44792 3.9757 8.51508 3.92836 8.61663 3.85823C8.61972 3.8561 8.62285 3.85394 8.62602 3.85175C8.71645 3.78934 8.83953 3.70439 8.95173 3.59829L8.95182 3.5982C9.03197 3.52237 9.12604 3.45634 9.25707 3.36559L9.26579 3.35956C9.38477 3.27718 9.53881 3.17053 9.67786 3.0361C9.73091 2.98484 9.79126 2.94426 9.89592 2.87389C9.90912 2.86502 9.92303 2.85567 9.93772 2.84576C10.0228 2.78834 10.1355 2.71096 10.2445 2.60587C10.2714 2.594 10.2955 2.5817 10.3164 2.5701C10.3504 2.55128 10.3878 2.52712 10.4137 2.50995C10.5114 2.53186 10.5722 2.57812 10.6294 2.65971L6.56933 5.40994ZM7.51919 6.38263L7.22822 5.97602C7.33348 5.90069 7.43748 5.82274 7.54669 5.74087C7.55432 5.73515 7.56197 5.72941 7.56964 5.72366C7.68555 5.63679 7.80725 5.54587 7.93253 5.45754L8.22061 5.86614L7.9322 5.45778C7.97075 5.43055 7.99853 5.40645 8.0406 5.36995C8.06552 5.34833 8.09546 5.32236 8.13564 5.28881C8.22538 5.21384 8.35358 5.11419 8.52197 5.04449C8.52817 5.04192 8.5339 5.03928 8.5389 5.03674C8.65559 4.87945 8.79616 4.78108 8.89134 4.71842C8.92955 4.69326 8.95928 4.6742 8.9833 4.65881C9.03727 4.62421 9.06238 4.60812 9.09008 4.58282L9.0902 4.58271C9.26774 4.42066 9.45886 4.28085 9.65536 4.16L9.65596 4.15963C9.68942 4.13912 9.71746 4.11416 9.78559 4.05352C9.79596 4.04429 9.80726 4.03423 9.81964 4.02324C9.89711 3.9545 10.0211 3.84658 10.1881 3.7705C10.1908 3.76866 10.1973 3.76414 10.2083 3.75539C10.2202 3.74587 10.2332 3.73488 10.2524 3.71858C10.2537 3.71743 10.2551 3.71625 10.2566 3.71503C10.2734 3.70072 10.2956 3.68178 10.3186 3.66322M7.51919 6.38263C7.62915 6.30395 7.73738 6.22281 7.84559 6.14169C7.96975 6.04861 8.0939 5.95554 8.22064 5.86619C8.27925 5.82479 8.33362 5.7778 8.38803 5.73078C8.48764 5.64468 8.58737 5.55849 8.71347 5.50636L6.23587 6.01414C6.32351 6.14469 6.4203 6.26913 6.51703 6.39349C6.53555 6.4173 6.55407 6.44111 6.57252 6.46495M7.51919 6.38263C7.43427 6.44329 7.33961 6.49138 7.24559 6.53731M10.3186 3.66322L10.6328 4.05212L10.3185 3.66327C10.3185 3.66325 10.3185 3.66323 10.3186 3.66322ZM10.3186 3.66322C10.3515 3.63656 10.385 3.6078 10.4241 3.57387C10.4282 3.57036 10.4323 3.56677 10.4365 3.56312C10.471 3.53319 10.5105 3.49894 10.5509 3.46547C10.635 3.39574 10.7384 3.31645 10.8629 3.24748M10.8629 3.24748C10.8637 3.24381 10.8645 3.24033 10.8652 3.23706C10.8663 3.23196 10.8673 3.22736 10.8682 3.22316C10.872 3.20601 10.8743 3.19556 10.8764 3.1846C10.8767 3.18292 10.877 3.18142 10.8772 3.18008M10.8629 3.24748C10.874 3.24133 10.8853 3.23526 10.8968 3.22929L10.8969 3.22952M10.8772 3.18008L10.8966 3.22975M10.8772 3.18008C10.8779 3.1877 10.8786 3.19536 10.8794 3.20303M10.8772 3.18008L10.8794 3.20361L10.8794 3.20303M10.8772 3.18008C10.8727 3.12512 10.8719 3.07252 10.8714 3.03909C10.8714 3.03475 10.8713 3.03073 10.8712 3.02707C10.8711 3.0158 10.8709 3.00633 10.8706 2.99834M10.8772 3.18008L10.6495 2.69289C10.6515 2.69627 10.6546 2.70183 10.6584 2.70869C10.6687 2.72687 10.684 2.75412 10.6956 2.7737C10.7252 2.82403 10.7807 2.91484 10.8706 2.99834M10.8772 3.18008C10.8783 3.17392 10.8787 3.17123 10.8787 3.17102C10.8787 3.17095 10.8787 3.17117 10.8787 3.17164C10.8784 3.17412 10.8776 3.18554 10.8794 3.20303M10.8772 3.18008L10.8794 3.20303M10.8969 3.22952C10.8968 3.22959 10.8967 3.22967 10.8966 3.22975M10.8969 3.22952C10.8983 3.22839 10.8991 3.2279 10.8991 3.22791C10.8991 3.22792 10.8983 3.22849 10.8964 3.22946L10.8966 3.22975M10.8969 3.22952L10.9569 3.3445L10.957 3.34474L11.128 3.67259L10.9567 3.34468L10.9565 3.34444L10.8966 3.22975M10.8706 2.99834C10.8867 3.01326 10.9038 3.02794 10.9221 3.04212C10.9116 3.0339 10.8945 3.01636 10.8811 2.99051C10.8705 2.97012 10.8679 2.95566 10.8679 2.95563C10.8679 2.95562 10.868 2.95594 10.8681 2.95659C10.869 2.96329 10.8699 2.97401 10.8706 2.99834ZM7.24559 6.53731L7.02638 6.08792C7.02629 6.08796 7.02621 6.088 7.02613 6.08804L7.24559 6.53731ZM7.24559 6.53731C7.09258 6.61195 6.94419 6.57441 6.79605 6.53694C6.74641 6.52438 6.69679 6.51183 6.64704 6.50351C6.62039 6.49918 6.58811 6.4851 6.57252 6.46495M6.57252 6.46495L6.66493 6.39345L6.66552 6.393L6.96797 6.15898C6.96794 6.15894 6.96791 6.1589 6.96788 6.15886L6.66553 6.39294L6.66494 6.3934L6.57252 6.46495ZM8.51515 5.0701C8.51496 5.07037 8.51478 5.07064 8.51459 5.07092L8.51515 5.0701Z" stroke="#232323"/>
</g>
<defs>
<clipPath id="clip0_148_2197">
<rect width="20" height="20" fill="white"/>
</clipPath>
</defs>
</svg>
