<svg width="50" height="50" viewBox="0 0 50 50" fill="none" xmlns="http://www.w3.org/2000/svg">
<path d="M50 25C50 38.8071 38.8071 50 25 50C11.1929 50 0 38.8071 0 25C0 11.1929 11.1929 0 25 0C38.8071 0 50 11.1929 50 25Z" fill="#02963A"/>
<path d="M34.0006 16L27.5006 34C27.4567 34.0957 27.3862 34.1769 27.2976 34.2338C27.209 34.2906 27.1059 34.3209 27.0006 34.3209C26.8952 34.3209 26.7921 34.2906 26.7035 34.2338C26.6149 34.1769 26.5444 34.0957 26.5006 34L23.0006 27L16.0006 23.5C15.9048 23.4561 15.8237 23.3857 15.7668 23.2971C15.7099 23.2084 15.6797 23.1053 15.6797 23C15.6797 22.8947 15.7099 22.7916 15.7668 22.7029C15.8237 22.6143 15.9048 22.5439 16.0006 22.5L34.0006 16Z" fill="white"/>
<path fill-rule="evenodd" clip-rule="evenodd" d="M34.5309 15.4697C34.7365 15.6753 34.8047 15.9812 34.706 16.2547L28.206 34.2547C28.1989 34.2743 28.191 34.2935 28.1824 34.3124C28.0787 34.5387 27.9122 34.7305 27.7027 34.8649C27.4932 34.9994 27.2495 35.0709 27.0006 35.0709C26.7516 35.0709 26.5079 34.9994 26.2984 34.8649C26.0933 34.7333 25.9294 34.5466 25.8253 34.3264L22.4415 27.559L15.6741 24.1753C15.4539 24.0712 15.2673 23.9073 15.1356 23.7021C15.0012 23.4926 14.9297 23.2489 14.9297 23C14.9297 22.7511 15.0012 22.5074 15.1356 22.2979C15.27 22.0884 15.4618 21.9219 15.6881 21.8182C15.707 21.8095 15.7263 21.8016 15.7458 21.7946L33.7458 15.2946C34.0193 15.1958 34.3253 15.264 34.5309 15.4697ZM16.7391 23.0307L23.336 26.3292C23.4811 26.4017 23.5988 26.5194 23.6714 26.6646L26.9698 33.2615L32.7525 17.2481L16.7391 23.0307Z" fill="white"/>
<path fill-rule="evenodd" clip-rule="evenodd" d="M34.5303 15.4697C34.8232 15.7626 34.8232 16.2374 34.5303 16.5303L23.5303 27.5303C23.2374 27.8232 22.7626 27.8232 22.4697 27.5303C22.1768 27.2374 22.1768 26.7626 22.4697 26.4697L33.4697 15.4697C33.7626 15.1768 34.2374 15.1768 34.5303 15.4697Z" fill="#EBEBEB"/>
</svg>
