<svg width="20" height="20" viewBox="0 0 20 20" fill="none" xmlns="http://www.w3.org/2000/svg">
<path d="M2.16797 15.3321V14.1695L2.16854 14.1571C2.16937 14.143 2.17126 14.1182 2.1755 14.0842C2.18401 14.0161 2.20186 13.9123 2.23911 13.7846C2.31343 13.5298 2.46448 13.1811 2.77342 12.828C3.37982 12.135 4.68035 11.3321 7.5013 11.3321C10.3223 11.3321 11.6228 12.135 12.2292 12.828C12.5381 13.1811 12.6892 13.5298 12.7635 13.7846C12.8007 13.9123 12.8186 14.0161 12.8271 14.0842C12.8313 14.1182 12.8332 14.143 12.8341 14.1571L12.8346 14.1695V15.3321H2.16797ZM17.8346 14.1696V15.3321H15.5013V14.1654V14.1557L15.5009 14.1459C15.4728 13.4256 15.2872 12.7203 14.9572 12.0794C14.8536 11.8782 14.7365 11.6849 14.607 11.5007C16.115 11.8029 16.8988 12.4053 17.3119 12.9253C17.5786 13.2612 17.7092 13.5852 17.7735 13.8199C17.8056 13.9374 17.821 14.0321 17.8282 14.0936C17.8319 14.1243 17.8335 14.1466 17.8342 14.159L17.8346 14.1696ZM17.8347 14.1702C17.8347 14.1707 17.8347 14.1706 17.8347 14.1698L17.8347 14.1702ZM12.4985 3.83207V3.83208H12.5013C13.1422 3.83208 13.7569 4.08669 14.2101 4.5399L14.5637 4.18635L14.2101 4.5399C14.6634 4.99311 14.918 5.6078 14.918 6.24874C14.918 6.88968 14.6634 7.50437 14.2101 7.95758C13.7569 8.4108 13.1422 8.66541 12.5013 8.6654L12.4985 8.66542C12.1881 8.66714 11.8822 8.60671 11.5982 8.48946C11.9728 7.8051 12.1713 7.03488 12.1713 6.24874C12.1713 5.46261 11.9728 4.69238 11.5982 4.00803C11.8822 3.89077 12.1881 3.83034 12.4985 3.83207ZM9.51069 4.90611C9.77623 5.30353 9.91797 5.77077 9.91797 6.24874C9.91797 6.88968 9.66336 7.50437 9.21014 7.95758C8.75693 8.4108 8.14224 8.66541 7.5013 8.66541C7.02333 8.66541 6.55609 8.52367 6.15867 8.25813C5.76126 7.99258 5.45151 7.61515 5.26859 7.17356C5.08568 6.73197 5.03782 6.24606 5.13107 5.77727C5.22432 5.30849 5.45448 4.87788 5.79246 4.5399C6.13044 4.20192 6.56105 3.97176 7.02983 3.87851C7.49862 3.78526 7.98453 3.83312 8.42612 4.01603C8.86771 4.19894 9.24514 4.5087 9.51069 4.90611Z" stroke="#232323"/>
</svg>
