<svg width="16" height="16" viewBox="0 0 16 16" fill="none" xmlns="http://www.w3.org/2000/svg">
<path d="M9.88889 4.83333C9.61275 4.83333 9.38889 4.60948 9.38889 4.33333V1C9.38889 0.723858 9.61275 0.5 9.88889 0.5H15C15.2761 0.5 15.5 0.723857 15.5 1V4.33333C15.5 4.60948 15.2761 4.83333 15 4.83333H9.88889ZM1 8.38889C0.723858 8.38889 0.5 8.16503 0.5 7.88889V1C0.5 0.723858 0.723858 0.5 1 0.5H6.11111C6.38725 0.5 6.61111 0.723857 6.61111 1V7.88889C6.61111 8.16503 6.38725 8.38889 6.11111 8.38889H1ZM9.88889 15.5C9.61275 15.5 9.38889 15.2761 9.38889 15V8.11111C9.38889 7.83497 9.61275 7.61111 9.88889 7.61111H15C15.2761 7.61111 15.5 7.83497 15.5 8.11111V15C15.5 15.2761 15.2761 15.5 15 15.5H9.88889ZM1 15.5C0.723857 15.5 0.5 15.2761 0.5 15V11.6667C0.5 11.3905 0.723858 11.1667 1 11.1667H6.11111C6.38725 11.1667 6.61111 11.3905 6.61111 11.6667V15C6.61111 15.2761 6.38725 15.5 6.11111 15.5H1Z" stroke="#232323"/>
</svg>
